<svg version="1.1" id="Layer_1" xmlns="http://www.w3.org/2000/svg" xmlns:xlink="http://www.w3.org/1999/xlink" x="0px" y="0px"
	 width="100%" viewBox="0 0 500 500" enable-background="new 0 0 500 500" xml:space="preserve">
<path fill="#FFFFFF" opacity="1.000000" stroke="none" 
	d="
M273.000000,501.000000 
	C183.333359,501.000000 94.166679,500.974823 5.000194,501.095825 
	C1.576102,501.100464 0.903036,500.423828 0.905301,497.000000 
	C1.013778,333.000092 1.013756,169.000122 0.905337,5.000246 
	C0.903074,1.576943 1.575797,0.903021 4.999877,0.905286 
	C168.999756,1.013775 332.999725,1.013761 496.999634,0.905353 
	C500.422668,0.903090 501.096985,1.575431 501.094727,4.999758 
	C500.986206,168.999634 500.986237,332.999603 501.094604,496.999512 
	C501.096893,500.422272 500.425598,501.102142 497.000275,501.096313 
	C422.500336,500.969879 348.000153,501.000000 273.000000,501.000000 
z"/>
<path fill="#11059F" opacity="1.000000" stroke="none" 
	d="
M69.175430,306.515686 
	C68.638023,306.711090 68.478600,306.768860 68.314491,306.789673 
	C65.477844,307.149567 61.980400,307.779663 60.553356,305.043701 
	C59.020092,302.104034 62.058681,299.877991 64.005653,297.960785 
	C72.388977,289.705658 82.543144,283.915741 92.496971,277.864624 
	C97.011963,275.119873 101.577629,272.458435 106.669250,269.433044 
	C104.508804,267.931671 102.538078,268.170227 100.721733,268.161133 
	C93.227531,268.123688 85.728348,268.051819 78.240479,268.290283 
	C75.219536,268.386536 72.665283,267.667450 71.723785,264.894989 
	C70.816360,262.222870 73.316177,260.741608 75.267113,259.606293 
	C77.550484,258.277496 79.972633,256.954559 82.507294,256.330139 
	C93.945671,253.512177 102.737656,245.806793 113.821617,240.189774 
	C109.215332,238.877182 105.569664,237.883118 101.950691,236.799850 
	C77.221588,229.397781 53.400276,219.616913 29.812038,209.228027 
	C29.204926,208.960632 28.581882,208.714676 28.011211,208.381699 
	C24.491280,206.327789 23.816290,203.176041 25.447729,199.805328 
	C27.122665,196.344742 30.025179,196.706818 33.124020,198.148621 
	C52.577759,207.199982 72.675247,214.683228 92.632835,222.510345 
	C102.737610,226.473282 113.065987,229.500504 123.831512,231.034866 
	C126.595833,231.428864 128.936661,231.111130 131.383804,229.567963 
	C138.699036,224.954956 146.145676,220.547577 153.591660,216.145584 
	C159.631790,212.574738 165.345184,208.642853 170.281921,203.570343 
	C173.896164,199.856644 178.038910,196.674545 183.184158,195.330994 
	C185.944214,194.610245 189.349503,194.195450 191.029358,196.768234 
	C192.819962,199.510620 190.009750,201.672440 188.234787,203.518494 
	C181.827682,210.182098 174.043457,215.052979 166.258957,219.877335 
	C159.364914,224.149811 152.353317,228.232605 144.785217,232.763382 
	C147.437500,234.083145 149.725677,233.860718 151.893555,233.869904 
	C159.220718,233.900970 166.551468,233.905640 173.874466,233.696869 
	C176.706467,233.616150 179.046021,234.450943 179.979889,236.974808 
	C181.007385,239.751740 178.525925,241.192871 176.558258,242.338760 
	C174.275620,243.668030 171.865112,245.019928 169.333359,245.637619 
	C157.885330,248.430786 149.124741,256.188995 138.672729,261.405457 
	C140.888245,263.323578 143.295654,263.368408 145.449844,263.977051 
	C171.916702,271.454773 197.249512,281.936188 222.371140,292.970154 
	C226.851730,294.938141 228.314102,298.595795 226.345688,302.158173 
	C224.446655,305.594971 221.757980,305.296631 218.665497,303.877472 
	C196.444290,293.679657 173.599091,285.019409 150.728348,276.425812 
	C149.175110,275.842163 147.563385,275.415924 145.999603,274.858307 
	C132.668716,270.104584 120.439682,269.873627 108.265274,279.422119 
	C98.791588,286.852448 87.406212,291.802338 78.857536,300.701416 
	C76.310318,303.353027 73.107254,305.219849 69.175430,306.515686 
z"/>
<path fill="#070707" opacity="1.000000" stroke="none" 
	d="
M278.312012,267.647339 
	C283.756775,274.398071 283.031464,276.265472 274.861877,277.917969 
	C273.093384,278.275726 272.106232,277.768219 271.112183,276.407806 
	C266.606934,270.241821 261.783630,264.291138 257.578583,257.929932 
	C255.428894,254.678024 252.879715,253.066910 249.432693,254.221725 
	C246.573456,255.179657 248.204361,258.270874 248.010971,260.346313 
	C247.626328,264.474670 247.644073,268.654968 247.732544,272.808777 
	C247.817383,276.792572 245.265366,277.303925 242.479492,276.629364 
	C240.031357,276.036621 235.917023,278.090363 236.133789,272.356201 
	C236.724258,256.737061 236.933853,241.096710 236.898254,225.465652 
	C236.889740,221.722870 238.184082,220.581131 241.493042,220.225983 
	C248.918808,219.429001 256.278717,217.941788 263.822601,218.738388 
	C273.217865,219.730499 279.116241,224.831955 280.723969,233.550827 
	C282.098450,241.004807 278.533173,246.708832 269.789032,251.050827 
	C269.059967,251.412872 268.338745,251.790833 267.464264,252.237869 
	C270.491730,257.788208 274.291016,262.578247 278.312012,267.647339 
z"/>
<path fill="#070707" opacity="1.000000" stroke="none" 
	d="
M405.563293,234.482544 
	C402.705688,230.777878 400.060760,227.359833 397.464996,223.904831 
	C396.907349,223.162537 395.698395,222.232941 396.433868,221.394028 
	C398.576996,218.949585 401.729004,218.848572 404.689331,218.527771 
	C406.576904,218.323227 408.459625,217.784409 409.664703,220.367996 
	C412.058563,225.500092 415.533691,229.993988 418.906128,234.527542 
	C420.556488,236.746124 421.793091,237.825119 423.842712,234.593826 
	C426.588776,230.264587 429.953674,226.331055 432.992462,222.183365 
	C435.803406,218.346771 442.389465,216.467468 446.654388,218.437622 
	C449.844116,219.911133 447.329437,221.561279 446.466370,222.662094 
	C441.543335,228.941193 436.601929,235.220703 431.341095,241.214188 
	C428.494202,244.457581 428.214233,246.714767 431.001862,250.439316 
	C436.288055,257.502197 441.813354,264.351196 447.484619,271.088226 
	C450.042572,274.126831 449.256012,275.736816 445.715515,276.578461 
	C441.528778,277.573730 437.826935,277.871979 434.895874,273.387787 
	C430.748932,267.043396 425.956696,261.120789 421.259308,254.773315 
	C415.912567,260.676270 411.800415,267.278198 407.671417,273.869995 
	C405.624725,277.137421 399.726532,278.286865 396.486572,276.258789 
	C394.310822,274.896820 395.235107,273.316681 396.120239,272.024231 
	C399.679657,266.826874 403.290436,261.656982 407.085358,256.630280 
	C414.752869,246.473907 414.807220,246.515305 406.993774,236.348801 
	C406.588684,235.821701 406.193390,235.287064 405.563293,234.482544 
z"/>
<path fill="#070707" opacity="1.000000" stroke="none" 
	d="
M296.749146,264.114807 
	C294.573486,254.463867 295.558990,245.837463 302.385468,238.644058 
	C307.703064,233.040588 314.364838,231.637329 321.642456,233.482971 
	C328.470428,235.214554 332.122009,240.188675 333.749176,246.770508 
	C335.034882,251.971146 333.533173,254.588135 328.335297,256.126678 
	C322.086182,257.976379 315.691559,259.249512 309.154633,258.730774 
	C305.553406,258.444977 305.691010,260.125275 306.443604,262.542633 
	C307.843903,267.040466 312.198761,269.266235 317.655945,268.697296 
	C323.760437,268.060852 328.249237,264.191132 333.272827,261.130951 
	C333.377411,267.834351 326.892120,275.411926 319.958496,276.936859 
	C309.313965,279.277924 301.242981,274.924591 296.749146,264.114807 
z"/>
<path fill="#070707" opacity="1.000000" stroke="none" 
	d="
M353.383179,246.759399 
	C361.965881,246.428619 370.104065,246.375000 378.192596,245.714005 
	C384.105774,245.230759 382.074890,249.848145 382.806641,252.377151 
	C383.809814,255.844513 380.832703,255.368469 378.776703,255.413345 
	C370.324127,255.597855 361.852570,255.458588 353.424347,256.002350 
	C348.566895,256.315735 346.986145,254.510529 346.937317,249.944153 
	C346.879974,244.585831 350.921570,247.787689 353.383179,246.759399 
z"/>
<path fill="#F7F7F7" opacity="1.000000" stroke="none" 
	d="
M114.311981,252.300842 
	C116.568130,250.564880 118.816391,249.306702 120.503265,247.518845 
	C125.638809,242.075851 131.883286,243.406525 138.103180,244.223709 
	C140.608429,244.552826 140.667786,245.851379 139.516449,247.673889 
	C135.034882,254.767975 121.471756,260.308563 113.464951,257.627197 
	C108.610359,256.001495 113.221733,254.201935 114.311981,252.300842 
z"/>
<path fill="#F7F7F7" opacity="1.000000" stroke="none" 
	d="
M262.487488,242.738037 
	C261.488495,243.062988 260.858002,243.263626 260.217255,243.423080 
	C256.542542,244.337677 251.497940,246.630035 249.387238,244.194016 
	C246.847610,241.262955 248.738205,235.963913 248.578979,231.694748 
	C248.544815,230.778625 248.922028,230.067917 249.939041,229.999634 
	C254.535751,229.690948 259.130341,228.494843 263.737915,229.846298 
	C266.557220,230.673233 268.289459,232.557404 268.516174,235.510605 
	C268.826721,239.555588 266.191437,241.391769 262.487488,242.738037 
z"/>
<path fill="#F7F7F7" opacity="1.000000" stroke="none" 
	d="
M323.150391,246.888062 
	C319.304993,249.221207 313.663879,250.375214 306.820831,250.606964 
	C307.562012,244.945938 311.432037,240.552231 316.186310,240.548492 
	C319.965179,240.545517 323.017365,241.991013 323.150391,246.888062 
z"/>
</svg>