<?xml version="1.0" encoding="UTF-8"?>
<svg version="1.1" viewBox="0 0 1600 464" width="1280" height="1280" xmlns="http://www.w3.org/2000/svg">
<path transform="translate(607,63)" d="m0 0c2.07 3.11 2.62 5 2.48 8.72-3.42 16.4-26.8 31.1-39.5 40.3-0.667 0.49-1.33 0.981-2.02 1.49-8.93 6.57-18.2 12.6-27.5 18.5-1.01 0.635-2.02 1.27-3.06 1.93-4.03 2.5-8.01 4.97-12.3 7.02-5.28 2.54-10.2 5.69-15.2 8.76-11.4 7-22.9 13.8-34.5 20.4-5.37 3.06-10.5 6.2-15.4 9.91 5.94 0.817 11.8 1.29 17.8 1.55 0.947 0.042 1.89 0.0841 2.87 0.127 10.9 0.44 21.8 0.468 32.7 0.448 3.46-0.00539 6.91 2.61e-6 10.4 0.00635 11 0.00173 22-0.135 33-1.07 4.64-0.0879 7.75 0.949 11.3 3.94 0.521 0.425 1.04 0.851 1.58 1.29 2.8 2.75 3.82 5.35 4.11 9.15-0.296 4.31-1.58 6.8-4.58 9.87-8.49 6.84-18.5 11.1-28.9 14-1.51 0.438-3.02 0.878-4.52 1.32-2.3 0.676-4.61 1.35-6.92 2.02-12.3 3.6-22.8 8.79-33.7 15.3-1.62 0.964-3.25 1.93-4.88 2.89-5.06 3.01-10.1 6.06-15.1 9.11-31.3 19-31.3 19-35 19v2c0.621 0.169 1.24 0.337 1.88 0.511 22 5.98 43.8 12.1 65.5 19.3 3.16 1.04 6.32 2.08 9.48 3.1 23.5 7.66 46.8 16 69.8 25.1 0.79 0.31 1.58 0.621 2.39 0.941 0.579 0.23 1.16 0.46 1.75 0.697 4.05 1.59 8.12 3.03 12.3 4.35 10.8 3.48 21.3 7.72 31.8 12.1 1.81 0.756 3.62 1.51 5.43 2.27 5.24 2.19 10.5 4.4 15.7 6.61 0.718 0.303 1.44 0.607 2.18 0.92 7.55 3.19 15.1 6.42 22.6 9.68 3.38 1.46 6.76 2.92 10.1 4.37 2.24 0.968 4.47 1.94 6.71 2.91 1 0.428 2 0.857 3.04 1.3 19 8.29 19 8.29 21.8 15.4 1.28 6.35 1.06 13.2-1.75 19.1-2.04 2.89-4.1 4.94-7.01 6.95-8.17 1.3-15.2-1.17-22.4-4.69-0.783-0.366-1.57-0.732-2.37-1.11-2.65-1.24-5.3-2.5-7.94-3.77-10.7-5.08-21.5-9.84-32.4-14.4-0.784-0.327-1.57-0.654-2.37-0.99-10.7-4.45-21.4-8.62-32.3-12.4-7.12-2.51-14.1-5.25-21.1-8.13-30.3-12.5-60.9-24.3-91.7-35.7-4.5-1.69-8.98-3.41-13.5-5.16-25.3-9.79-71.1-27.5-98.7-20.2-2.27 1.25-4.3 2.69-6.41 4.2-2.98 2.06-6.06 3.83-9.22 5.61-6.75 3.81-13.4 7.77-20 11.8-3.76 2.27-7.53 4.52-11.3 6.78-2.17 1.3-4.34 2.6-6.51 3.91-4.94 2.96-9.87 5.92-14.8 8.86-24.4 14.4-24.4 14.4-47.4 31.1-2.36 1.79-2.36 1.79-5.36 2.79v2c-1.33 1.34-1.33 1.34-3.25 2.94-3.09 2.62-6.09 5.3-9.05 8.08-13.8 12.9-29.4 25.2-48.9 25.5-0.748 0.0185-1.5 0.0371-2.27 0.0562-5.43-0.0611-10.1-1.24-14.5-4.56-1.64-4.26-1.21-6.39 0.25-10.7 15.3-27.2 51.1-46.4 76.8-62.3 1.62-1.01 3.23-2.02 4.85-3.02 1.57-0.972 3.14-1.94 4.71-2.91 0.701-0.436 1.4-0.873 2.12-1.32 3.62-2.22 7.26-4.24 11.1-6.1 6.04-2.97 11.7-6.45 17.5-9.95 8.85-5.35 17.7-10.6 26.8-15.7v-2c1.65-0.33 3.3-0.66 5-1-4.22-4.22-18.3-2.34-24.3-2.5-2.2-0.0589-4.39-0.124-6.59-0.191-13.4-0.391-26.8-0.486-40.3 0.0879-2.6 0.103-5.2 0.205-7.8 0.307-1.77 0.0744-3.54 0.157-5.31 0.248-2.61 0.131-5.22 0.228-7.83 0.32-1.17 0.0715-1.17 0.0715-2.36 0.144-6.82 0.187-11.1-2.45-16.2-6.82-2.54-2.61-3.34-4.33-3.61-7.97 3.15-9.14 11-14.3 19.2-18.6 9.76-4.56 19.9-7.62 30.3-10.6 1.58-0.464 3.15-0.929 4.73-1.39 1.1-0.314 1.1-0.314 2.22-0.634 6.36-1.94 11.9-4.98 17.6-8.3l3.04-1.74c7.33-4.22 14.6-8.55 21.8-12.9 5.86-3.54 11.8-7.03 17.7-10.5l2.36-1.37c4.03-2.33 8.07-4.54 12.3-6.56v-2c0.33-0.33 0.66-0.66 1-1-1.47-0.421-1.47-0.421-2.96-0.851-9.99-2.87-20-5.76-30-8.67-3.11-0.907-6.23-1.81-9.35-2.71-33.8-9.74-66.8-21.9-99.7-34.4-0.85-0.324-1.7-0.647-2.58-0.981-9.33-3.56-18.6-7.2-27.8-11.1-4.15-1.74-8.32-3.22-12.6-4.56-9.39-3.06-18.4-7-27.5-10.9-5.2-2.24-10.4-4.46-15.6-6.66-4.42-1.87-8.84-3.75-13.3-5.63-2.22-0.942-4.44-1.88-6.66-2.82-3.16-1.34-6.32-2.68-9.48-4.03-0.948-0.399-1.9-0.797-2.87-1.21-17.3-7.4-17.3-7.4-20.7-15.5-1.5-6.02-1.84-11.3 1-16.9 2.68-4.04 5.47-7.18 10-9.06 6.84-0.369 12.8 2.29 18.9 5.06 0.914 0.403 1.83 0.807 2.77 1.22 2.77 1.23 5.53 2.47 8.29 3.72 15.3 6.87 30.7 13.2 46.3 19.2 1.12 0.432 1.12 0.432 2.25 0.873 0.757 0.294 1.51 0.587 2.29 0.89 0.77 0.298 1.54 0.597 2.33 0.904 1.58 0.612 3.16 1.22 4.74 1.84 10.9 4.23 21.8 8.56 32.6 13 11.6 4.75 23.2 9.32 34.9 13.9 1.6 0.632 3.21 1.26 4.81 1.9 0.773 0.304 1.55 0.609 2.34 0.922 6.63 2.61 13.2 5.25 19.8 7.93 7.47 3.02 15 5.8 22.6 8.61 1.12 0.417 1.12 0.417 2.27 0.843 26.9 10 53.3 18.6 81.7 23.2l3.51 0.572c3.68 0.594 7.37 1.17 11.1 1.74 1.16 0.184 2.32 0.368 3.52 0.557 1.63 0.244 1.63 0.244 3.3 0.494 0.965 0.147 1.93 0.295 2.92 0.447 11.4 0.804 24.2-9.12 33.5-14.9 3.03-1.88 6.08-3.74 9.12-5.6 0.607-0.373 1.21-0.745 1.84-1.13 5.49-3.36 11-6.65 16.6-9.91 39.8-23 39.8-23 75.6-51.6 5.15-4.86 10.6-9.35 16.1-13.8 0.699-0.602 1.4-1.2 2.12-1.82 4.66-3.91 9.6-6.76 15-9.49 0.669-0.338 1.34-0.676 2.03-1.02 10.9-5.33 23.7-7.47 34.8-1.66zm-37 127 1 2zm-175 22v1h5v-1h-5zm5 1v2c-1.54 0.352-1.54 0.352-3.11 0.711-4.01 1.15-6.96 3.28-10.1 5.91-1.14 0.912-2.28 1.82-3.42 2.73-0.561 0.45-1.12 0.901-1.7 1.36-2.32 1.82-4.72 3.52-7.13 5.22-4.25 3.08-8.38 6.29-12.4 9.62-0.544 0.435-1.09 0.87-1.65 1.32-3.97 3.33-6.15 6.54-8.41 11.1v2c3.59 2.4 6.81 2.76 11 3.32 1.17 0.166 1.17 0.166 2.37 0.335 1.66 0.231 3.31 0.459 4.97 0.683 2.53 0.343 5.05 0.704 7.58 1.07 1.61 0.223 3.22 0.445 4.83 0.666 0.752 0.108 1.5 0.217 2.28 0.328 7.1 0.936 10.7 0.0608 16.5-4.03 4.04-2.79 8.09-5.36 12.4-7.75 10.6-6.12 29.1-17.2 32.9-29.2 0.0619-0.784 0.124-1.57 0.188-2.38-3.28-3.28-6.95-3.16-11.4-3.5l-6.45-0.5c-2.14-0.164-4.29-0.331-6.43-0.5-0.949-0.0722-1.9-0.144-2.87-0.219-2.97-0.296-5.88-0.777-8.82-1.28-3.85-0.229-7.3-0.233-11 1zm320 169 1 2zm1 2 1 3z" fill="#FB0C8C"/>
<path transform="translate(775,132)" d="m0 0c12.6-0.0466 25.2-0.082 37.8-0.104 5.85-0.0104 11.7-0.0244 17.6-0.0473 5.66-0.0219 11.3-0.0337 17-0.0389 2.15-0.00366 4.29-0.0108 6.44-0.0217 10.1-0.0494 20.2-0.00147 30.3 1.09 1.07 0.114 1.07 0.114 2.15 0.231 11.1 1.36 21.8 6.36 30.8 12.9 0.33 0.99 0.66 1.98 1 3 0.959 0.217 0.959 0.217 1.94 0.438 0.681 0.186 1.36 0.371 2.06 0.562 1.06 1.87 1.06 1.87 2 4 0.979 1.02 1.98 2.02 3 3 3.48 4.29 5.15 8.84 7 14 0.378 0.976 0.755 1.95 1.14 2.96 2.62 7.65 3.24 14.7 3.29 22.7 0.00999 0.95 0.02 1.9 0.0303 2.88-0.175 14.5-5.2 26.7-15.2 37.2-6.01 5.85-11.8 9.16-19.7 12.2-2.8 1.04-2.8 1.04-5.64 3.08 0.594 0.828 1.19 1.66 1.8 2.51 7.06 10.1 12.5 20.7 17.8 31.7 2.55 5.16 5.21 10.3 7.97 15.3 1.82 3.33 3.39 6.44 4.65 10 1.25 3.39 1.91 5.15 4.75 7.41 6.52 1.58 13.3 1.32 20 1 0.562 1.94 0.562 1.94 1 4l-1 1c-0.0731 2.53-0.0925 5.03-0.0625 7.56 0.00677 1.07 0.00677 1.07 0.0137 2.15 0.0118 1.76 0.0298 3.52 0.0488 5.28-4.7 0.174-9.39 0.301-14.1 0.385-1.59 0.035-3.19 0.0826-4.78 0.144-14.9 0.556-14.9 0.556-20-3.65-2.85-3.16-5.14-6.56-7.16-10.3-0.325-0.596-0.65-1.19-0.984-1.81-1.03-1.91-2.03-3.83-3.02-5.76-0.33-0.642-0.66-1.28-1-1.94-2.04-4-4.03-8.01-6.01-12-1.93-3.92-3.89-7.82-5.85-11.7-1.91-3.81-3.78-7.63-5.62-11.5-0.643-1.33-0.643-1.33-1.3-2.68-0.829-1.71-1.65-3.43-2.46-5.15-2.7-5.54-5.77-11.2-10.8-15-5.81-1.9-11.2-2.33-17.3-2.41-0.854-0.0194-1.71-0.0387-2.59-0.0587-2.7-0.0593-5.4-0.106-8.1-0.152-1.84-0.0382-3.68-0.0773-5.53-0.117-4.49-0.0955-8.98-0.18-13.5-0.258-0.0232 7.48-0.041 15-0.0518 22.4-0.00521 3.47-0.0123 6.94-0.0236 10.4-0.013 3.99-0.0178 7.99-0.0222 12-0.00516 1.24-0.0103 2.49-0.0156 3.77-7.55e-5 1.16-1.51e-4 2.32-2.29e-4 3.52-0.00222 1.02-0.00444 2.04-0.00673 3.09 0.065 3.19 0.065 3.19 1.12 7.8 9.24 0.33 18.5 0.66 28 1 0.864 4.32 1.13 7.88 1.12 12.2 0.00387 1.86 0.00387 1.86 0.00781 3.77-0.133 2.98-0.133 2.98-1.13 3.98-2.46 0.095-4.9 0.126-7.37 0.114-0.771 1.46e-4 -1.54 2.92e-4 -2.34 4.43e-4 -2.56-6.99e-4 -5.12-0.00849-7.68-0.0163-1.77-0.00186-3.54-0.00329-5.31-0.00429-4.67-0.00383-9.33-0.0137-14-0.0247-4.76-0.0102-9.52-0.0148-14.3-0.0198-9.34-0.0107-18.7-0.0278-28-0.0488-1.25-3.74-1.15-7.23-1.12-11.1-0.00387-0.741-0.00773-1.48-0.0117-2.25 0.0101-5.5 0.0101-5.5 1.14-6.63h24c-0.495-81.7-0.495-81.7-1-165h2v-2c-0.747 0.0105-1.49 0.0209-2.26 0.0317-3.37 0.0415-6.74 0.0676-10.1 0.0933-1.18 0.0168-2.35 0.0335-3.56 0.0508-1.68 0.00967-1.68 0.00967-3.4 0.0195-1.04 0.0105-2.07 0.0209-3.14 0.0317-2.52-0.227-2.52-0.227-4.52-2.23-0.199-2.5-0.278-4.87-0.25-7.38-0.00773-0.673-0.0155-1.35-0.0234-2.04 0.0149-3.79 0.453-6.3 2.27-9.59zm50 21c-1.19 3.58-1.15 6.84-1.15 10.6-0.00336 0.768-0.00672 1.54-0.0102 2.33-0.0095 2.54-0.0115 5.08-0.0125 7.62-0.00321 1.76-0.00658 3.52-0.0101 5.29-0.00599 3.69-0.00784 7.39-0.00725 11.1 1.02e-4 4.74-0.0136 9.48-0.0308 14.2-0.0111 3.64-0.0131 7.28-0.0126 10.9-0.00118 1.75-0.00562 3.5-0.0133 5.25-0.00975 2.44-0.00694 4.88-8.95e-4 7.32-0.00562 0.727-0.0112 1.45-0.017 2.2-0.0937 4.06-0.0937 4.06 2.26 7.23 2.11 0.267 2.11 0.267 4.55 0.167 0.945-0.0137 1.89-0.0274 2.86-0.0416 1.03-0.0259 2.05-0.0518 3.11-0.0786 1.06-0.0203 2.12-0.0406 3.21-0.0615 2.25-0.0457 4.5-0.0965 6.75-0.152 3.41-0.0824 6.82-0.145 10.2-0.205 2.19-0.047 4.38-0.0951 6.56-0.145 1.01-0.0178 2.02-0.0357 3.06-0.054 13.4-0.363 26.8-2.64 36.7-12.4 8.82-9.47 10.5-18.6 10.3-31.3-0.239-4.82-1.2-9.28-2.54-13.9-0.196-0.694-0.392-1.39-0.594-2.1-2.72-8.57-8.55-13.4-16.2-17.7-14.6-7.33-30.3-6.25-46.2-6.12-2.21 0.01-4.42 0.0192-6.63 0.0273-5.37 0.0219-10.7 0.0552-16.1 0.0977zm86 125 1 2zm11 21 1 2zm2 4 1 2zm6 11 1 2z" fill="#787779"/>
<path transform="translate(1310 132)" d="m0 0c0.707 0.0036 1.41 0.00719 2.14 0.0109 1.11-2.19e-4 1.11-2.19e-4 2.25-4.43e-4 2.46 6.99e-4 4.92 0.00849 7.39 0.0163 1.7 0.00186 3.41 0.00329 5.11 0.00429 4.49 0.00383 8.98 0.0137 13.5 0.0247 4.58 0.0102 9.16 0.0148 13.7 0.0198 8.99 0.0107 18 0.0278 27 0.0488-0.33 0.99-0.66 1.98-1 3-0.0802 1.41-0.108 2.82-0.0977 4.23 0.0025 0.723 5e-3 1.45 0.00757 2.19 0.0091 0.912 0.0182 1.82 0.0276 2.76 0.0206 2.91 0.0412 5.82 0.0625 8.81h-21c0.99 1.65 1.98 3.3 3 5 0.433 0.784 0.866 1.57 1.31 2.38 2.25 3.5 4.94 6.51 7.69 9.62 8.8 10.1 8.8 10.1 9.5 13.2 0.165 0.598 0.33 1.2 0.5 1.81 1.48 0.495 1.48 0.495 3 1 2.01 2.4 2.01 2.4 4.12 5.38 0.704 0.977 1.41 1.95 2.13 2.96 1.74 2.66 1.74 2.66 2.74 5.66 1.48 0.99 1.48 0.99 3 2 0.33 0.99 0.66 1.98 1 3 0.722 0.722 1.44 1.44 2.19 2.19 2.89 2.89 5.14 5.9 7.48 9.24 0.44 0.519 0.879 1.04 1.33 1.57h2c1.5-1.93 2.88-3.86 4.25-5.88 4.11-5.92 8.42-11.6 12.9-17.3 4.46-5.69 8.81-11.4 13-17.3 2.05-2.76 4.22-5.37 6.42-8 4.34-5.22 7.9-10.7 11.4-16.5h-20c-1.5-3-1.14-6.09-1.12-9.38-0.00387-0.673-0.00773-1.35-0.0117-2.04 0.00663-3.37 0.239-6.35 1.14-9.59 9.74-0.0463 19.5-0.0818 29.2-0.104 4.52-0.0105 9.05-0.0246 13.6-0.0473 4.36-0.0217 8.73-0.0337 13.1-0.0389 1.67-0.0037 3.33-0.0109 5-0.0217 2.33-0.0145 4.66-0.0165 6.99-0.0156 0.694-0.00719 1.39-0.0144 2.1-0.0218 4.78 0.0207 4.78 0.0207 7.01 2.25-0.33 0.33-0.66 0.66-1 1 0.239 1.61 0.482 3.21 0.738 4.82 0.483 4.03 0.526 8.13 0.262 12.2-0.33 0.33-0.66 0.66-1 1-1.87-0.0131-3.75-0.0828-5.62-0.176-13.4-1.03-13.4-1.03-25.3 3.9-2.43 2.87-4.28 6.05-6.04 9.36-1.73 3.08-3.93 5.74-6.14 8.48-0.831 1.08-1.66 2.16-2.48 3.24-2.83 3.69-5.66 7.37-8.49 11-2.38 3.09-4.74 6.19-7.09 9.3-5.11 6.75-10.2 13.4-15.7 19.9-0.449 0.526-0.898 1.05-1.36 1.59-1.25 1.47-2.51 2.94-3.76 4.41-5.94 6.6-5.94 6.6-8 15 0.596 0.251 1.19 0.503 1.8 0.762 2.5 1.41 3.62 2.75 5.32 5.05 0.61 0.813 1.22 1.63 1.85 2.46 0.669 0.898 1.34 1.8 2.03 2.72 1.52 1.96 3.04 3.92 4.56 5.88 6 7.78 11.8 15.7 17.6 23.6 1.8 2.45 3.6 4.89 5.41 7.32 6.35 8.58 12.6 17.2 18.7 26 2.34 3.64 2.34 3.64 5.73 6.17 1.96 0.154 3.92 0.25 5.88 0.316 1.17 0.0419 2.33 0.0838 3.54 0.127 1.22 0.0393 2.45 0.0786 3.71 0.119 1.23 0.0432 2.46 0.0864 3.73 0.131 3.05 0.106 6.1 0.208 9.14 0.307 0.0135 1.61 0.0232 3.22 0.0312 4.82 0.0058 0.895 0.0116 1.79 0.0176 2.71-0.0515 2.6-0.471 4.94-1.05 7.46v5h-76c-2.25-12.4-2.25-12.4 0-20 1.26-0.0606 2.53-0.121 3.83-0.184 1.66-0.0844 3.32-0.169 4.98-0.254 0.833-0.0393 1.67-0.0786 2.53-0.119 1.2-0.0628 1.2-0.0628 2.43-0.127 0.738-0.0367 1.48-0.0733 2.24-0.111 2.2-0.154 2.2-0.154 4.99-1.21-5.52-8.17-11.1-16.2-17.2-24-3.86-4.96-7.46-10.1-11.1-15.2-6.1-8.7-12.4-17.2-18.8-25.8-3.8 1.27-4.49 2.78-6.69 6.06-0.623 0.919-1.25 1.84-1.89 2.79-0.471 0.71-0.941 1.42-1.43 2.15-0.33-0.99-0.66-1.98-1-3-0.201 0.981-0.402 1.96-0.609 2.97-1.42 4.95-4.46 8.51-7.64 12.5-1.13 1.44-2.26 2.87-3.39 4.31-0.562 0.708-1.12 1.42-1.7 2.15-2.1 2.67-4.12 5.38-6.15 8.1-1.56 2.08-3.14 4.14-4.72 6.19-8.25 10.6-8.25 10.6-15.8 21.8 0.639-0.186 1.28-0.371 1.94-0.562 1.02-0.217 1.02-0.217 2.06-0.438 0.33 0.33 0.66 0.66 1 1 2.86 0.237 5.7 0.422 8.56 0.562 1.21 0.0648 1.21 0.0648 2.44 0.131 2 0.106 4 0.207 5.99 0.307-0.164 0.664-0.327 1.33-0.496 2.01-0.61 3.62-0.612 7.15-0.566 10.8 0.00451 0.693 0.00902 1.39 0.0137 2.1 0.0117 1.7 0.0296 3.39 0.0488 5.09-9.74 0.0694-19.5 0.123-29.2 0.155-4.52 0.0157-9.05 0.037-13.6 0.0709-4.36 0.0325-8.73 0.0505-13.1 0.0583-1.67 0.00556-3.33 0.0164-5 0.0326-2.33 0.0217-4.66 0.0248-6.99 0.0234-0.694 0.0108-1.39 0.0216-2.1 0.0327-1.92-0.0125-1.92-0.0125-5.01-0.373-2.21-3.32-2.27-4.44-2.25-8.31-0.00516-0.924-0.0103-1.85-0.0156-2.8 0.295-3.2 1.15-5.88 2.27-8.89 0.64-0.0198 1.28-0.0396 1.94-0.0601 2.92-0.0956 5.83-0.205 8.75-0.315 1.51-0.0464 1.51-0.0464 3.05-0.0938 0.976-0.0387 1.95-0.0773 2.96-0.117 0.895-0.0314 1.79-0.0628 2.71-0.0952 3.99-0.491 6.76-1.41 9.48-4.4 0.949-1.35 0.949-1.35 1.92-2.73 0.78-1.09 1.56-2.17 2.34-3.25 0.441-0.615 0.882-1.23 1.34-1.86 3.03-4.16 6.19-8.23 9.32-12.3 7.61-9.97 15.2-20 22.6-30.1 3.5-4.7 7.04-9.34 10.7-13.9 6.43-7.81 6.43-7.81 10.8-16.8-1.06-1.97-1.06-1.97-2.72-3.95-0.603-0.766-1.21-1.53-1.83-2.32-0.645-0.797-1.29-1.59-1.95-2.42-0.614-0.778-1.23-1.56-1.86-2.36-3.56-4.49-7.25-8.83-11-13.1-2.25-2.6-4.33-5.29-6.41-8.03-0.861-1.13-1.72-2.26-2.58-3.39-0.431-0.568-0.863-1.14-1.31-1.72-2.09-2.74-4.19-5.47-6.3-8.21-0.833-1.08-1.67-2.17-2.5-3.25-0.412-0.536-0.825-1.07-1.25-1.62-3.75-4.88-3.75-4.88-5-6.5-0.827-1.07-1.65-2.15-2.48-3.22-2.19-2.84-4.37-5.69-6.55-8.54-0.455-0.594-0.91-1.19-1.38-1.8-0.874-1.14-1.75-2.28-2.62-3.43-1.66-2.16-3.29-4.21-5.22-6.14-2.62-0.372-2.62-0.372-5.66-0.414-1.12-0.0387-2.24-0.0773-3.4-0.117-1.18-0.0309-2.35-0.0619-3.56-0.0938-1.78-0.058-1.78-0.058-3.59-0.117-2.93-0.0945-5.86-0.18-8.79-0.258v-2h-2c-0.0992-6.09-0.173-12 1-18 1.67-1.67 3.71-1.12 5.95-1.12zm74.1 58.1c0.66 0.66 1.32 1.32 2 2v-2h-2zm127 134v6h1v-6h-1z" fill="#7C7C7C"/>
<path transform="translate(449 273)" d="m0 0c0.853 0.243 1.71 0.486 2.59 0.737 2.8 0.801 5.6 1.61 8.39 2.43 1.93 0.559 3.87 1.12 5.8 1.68 13.9 4.02 27.6 8.24 41.3 12.8 3.09 1.02 6.18 2.04 9.28 3.04 23.5 7.66 46.8 16 69.9 25.1 0.79 0.31 1.58 0.621 2.39 0.941 0.579 0.23 1.16 0.46 1.75 0.697 4.05 1.59 8.12 3.03 12.3 4.35 10.8 3.48 21.3 7.72 31.8 12.1 1.81 0.756 3.62 1.51 5.43 2.27 5.24 2.19 10.5 4.4 15.7 6.61 0.718 0.303 1.44 0.607 2.18 0.92 7.55 3.19 15.1 6.42 22.6 9.68 3.38 1.46 6.76 2.92 10.1 4.37 2.24 0.968 4.47 1.94 6.71 2.91 1 0.428 2 0.857 3.04 1.3 19 8.29 19 8.29 21.8 15.4 1.28 6.35 1.06 13.2-1.75 19.1-2.04 2.89-4.1 4.94-7.01 6.95-8.17 1.3-15.2-1.17-22.4-4.69-0.783-0.366-1.57-0.732-2.37-1.11-2.65-1.24-5.3-2.5-7.94-3.77-10.7-5.08-21.5-9.84-32.4-14.4-0.784-0.327-1.57-0.654-2.37-0.99-10.7-4.45-21.4-8.62-32.3-12.4-7.12-2.51-14.1-5.25-21.1-8.13-30.3-12.5-60.9-24.3-91.7-35.7-4.5-1.69-8.98-3.41-13.5-5.16-27.7-10.7-58.1-18.4-87.7-21.2 0.727-3.81 0.727-3.81 3.19-5.49 0.928-0.456 1.86-0.913 2.81-1.38 3.7-1.9 7.2-3.83 10.6-6.19 3.64-2.49 7.36-4.67 11.2-6.77 2.05-1.12 4.07-2.29 6.08-3.48 3.06-1.69 3.06-1.69 5.06-1.69v-2c3.39-1.7 6.91 0.194 10.4 1.21zm271 109 1 2zm1 2 1 3z" fill="#0011FE"/>
<path transform="translate(1066 196)" d="m0 0c1.17-0.02 2.34-0.04 3.55-0.0605 15.7 0.00867 29.7 5.31 40.9 16.4 6.25 6.45 10.5 11.9 12.1 20.8 0.783 3.48 2.2 6.64 3.63 9.91 3.44 9.38 1.9 19.7 1.9 29.5h-109c0.713 12.2 0.713 12.2 4 23h2c0.315 0.592 0.629 1.18 0.953 1.79 6.72 12.4 15.8 19.3 29 24.2 15.2 4.05 31.1 0.12 44.7-6.97 6.96-4.23 12.4-9.63 17.3-16 2.88 1.34 5.25 2.84 7.69 4.88 0.602 0.492 1.2 0.985 1.82 1.49 2.46 2.7 2.49 5.07 2.49 8.63-8.73 15-26.3 23.3-42.4 27.6-5.14 1.23-10.3 1.97-15.6 2.35-0.723 0.0541-1.45 0.108-2.19 0.164-19.7 0.734-37.8-6.63-52.8-19.2-8.48-8.04-14.3-19.1-18.2-30-0.813-2.25-0.813-2.25-2.79-4.99-0.0402-2.33-0.0432-4.67 0-7-0.33-0.33-0.66-0.66-1-1-1.19-23 2.75-45 18.1-63.1 14.9-15.9 32.4-22.5 53.8-22.4zm-19.9 21.4c-10.8 3.96-17.4 11.4-22.4 21.5-2.15 4.94-3.52 9.11-3.62 14.5 1.75 1.75 4.05 1.12 6.39 1.12 0.773-0.0036 1.55-0.00719 2.34-0.0109 0.81 1.46e-4 1.62 2.92e-4 2.45 4.43e-4 2.69-6.99e-4 5.38-0.00849 8.07-0.0163 1.86-0.00186 3.72-0.00329 5.58-0.00429 4.9-0.00383 9.81-0.0137 14.7-0.0247 5-0.0102 10-0.0148 15-0.0198 9.82-0.0107 19.6-0.0278 29.5-0.0488 0.0392-5.72-0.572-10.5-2-16-0.227-0.99-0.454-1.98-0.688-3-3.45-7.87-9.41-14.5-17.3-18-3.95-1.03-7.81-1.79-11.8-2.46-9.07-1.56-17-0.0598-26.2 2.46zm71 6 1 2zm-14 19 1 2z" fill="#7B7B7C"/>
<path transform="translate(356,203)" d="m0 0c1.25 0.273 1.25 0.273 2.54 0.551 6.42 1.39 12.8 2.73 19.3 4.01 15.8 3.15 15.8 3.15 22.2 5.44v2c-1.13 0.521-2.25 1.04-3.41 1.58-5.06 2.53-9.46 5.78-14 9.17-0.835 0.623-1.67 1.25-2.53 1.89-5.12 3.84-10.2 7.71-15.2 11.8-1.2 0.985-2.43 1.94-3.69 2.86-4.57 3.4-6.79 7.73-9.25 12.7 6.58 1.82 13.1 2.76 19.9 3.56 1.02 0.126 2.05 0.251 3.11 0.381 2.03 0.247 4.07 0.483 6.1 0.709 1.89 0.225 3.78 0.489 5.66 0.8 5.03 0.753 8.11 0.841 12.5-2.21 0.537-0.411 1.07-0.821 1.63-1.24 1.2-0.848 2.41-1.69 3.61-2.54 0.885-0.633 0.885-0.633 1.79-1.28 2.5-1.72 5.13-3.16 7.79-4.62 9.93-5.73 18.6-13.1 27-20.8 1.93-1.71 1.93-1.71 3.93-2.71-1.59 4.14-4.6 7.23-8 10h-2c-0.33 0.99-0.66 1.98-1 3-1.33 0.333-2.67 0.667-4 1-0.33 0.99-0.66 1.98-1 3-1.63 1.44-1.63 1.44-3.71 2.92-0.75 0.532-1.5 1.06-2.27 1.61-0.789 0.547-1.58 1.09-2.39 1.66-0.781 0.559-1.56 1.12-2.37 1.69-5.87 4.12-5.87 4.12-9.26 4.12-0.33 0.99-0.66 1.98-1 3-5.22 3-5.22 3-8 3-0.33 0.99-0.66 1.98-1 3-1.85 0.73-1.85 0.73-4.06 1.19-0.733 0.159-1.47 0.317-2.22 0.48-0.566 0.11-1.13 0.219-1.71 0.332v2c-2.27 1.51-4.52 2.89-6.88 4.25-1.39 0.812-2.77 1.62-4.16 2.44-0.681 0.396-1.36 0.791-2.06 1.2-2.44 1.43-4.86 2.89-7.28 4.36-3.69 2.21-7.42 4.33-11.2 6.39-3.89 2.18-7.71 4.5-11.5 6.81-2.91 1.56-5.74 2.6-8.89 3.55-0.33-0.99-0.66-1.98-1-3-7.74-1.04-15.5-1.29-23.3-1.5-2.2-0.0589-4.39-0.124-6.59-0.191-13.4-0.391-26.8-0.486-40.3 0.0879-2.6 0.103-5.2 0.205-7.8 0.307-1.77 0.0744-3.54 0.157-5.31 0.248-2.61 0.131-5.22 0.228-7.83 0.32-0.78 0.0477-1.56 0.0954-2.36 0.144-6.82 0.187-11.1-2.45-16.2-6.82-2.54-2.61-3.34-4.33-3.61-7.97 3.15-9.14 11-14.3 19.2-18.6 9.76-4.56 19.9-7.62 30.3-10.6 1.58-0.464 3.15-0.929 4.73-1.39 0.733-0.209 1.47-0.418 2.22-0.634 6.36-1.94 11.9-4.98 17.6-8.3 1-0.574 2-1.15 3.04-1.74 7.33-4.22 14.6-8.55 21.8-12.9 5.86-3.54 11.8-7.03 17.7-10.5 0.779-0.453 1.56-0.907 2.36-1.37 4.03-2.33 8.07-4.54 12.3-6.56v-2z" fill="#0010FD"/>
<path transform="translate(607,63)" d="m0 0c2.07 3.11 2.62 5 2.48 8.72-3.42 16.4-26.8 31.1-39.5 40.3-0.667 0.49-1.33 0.981-2.02 1.49-8.93 6.57-18.2 12.6-27.5 18.5-1.01 0.635-2.02 1.27-3.06 1.93-4.03 2.5-8.01 4.97-12.3 7.02-5.28 2.54-10.2 5.69-15.2 8.76-11.4 7-22.9 13.8-34.5 20.4-5.37 3.06-10.5 6.2-15.4 9.91 5.94 0.817 11.8 1.29 17.8 1.55 0.947 0.042 1.89 0.0841 2.87 0.127 10.9 0.44 21.8 0.468 32.7 0.448 3.46-0.00539 6.91 2.61e-6 10.4 0.00635 11 0.00173 22-0.135 33-1.07 4.6-0.0871 7.8 0.916 11.3 3.94 1.89 1.92 3.41 3.81 5 6-0.33 0.66-0.66 1.32-1 2-0.33-0.99-0.66-1.98-1-3-1.8-1.07-1.8-1.07-4-2-0.685-0.51-1.37-1.02-2.08-1.54-4.06-2.02-7.49-1.83-12-1.75-1.35 0.00657-1.35 0.00657-2.73 0.0133-1.96 0.0114-3.91 0.0297-5.87 0.0542-3.12 0.0385-6.24 0.0579-9.36 0.0724-7.76 0.04-15.5 0.112-23.3 0.184-6.54 0.0599-13.1 0.107-19.6 0.137-3.03 0.0191-6.07 0.0566-9.1 0.0951-15.6 0.124-30.9-1.27-46.1-4.84-2.58-0.564-5.13-0.822-7.76-1.02-1-0.0793-2-0.159-3.03-0.24-1.01-0.0741-2.03-0.148-3.07-0.225-2.05-0.154-4.1-0.311-6.15-0.473l-2.71-0.199c-2.2-0.265-2.2-0.265-4.2-1.27-1.68-0.197-3.36-0.344-5.05-0.465-1.01-0.078-2.02-0.156-3.06-0.236-2.12-0.157-4.25-0.31-6.38-0.461-1.01-0.0793-2.03-0.159-3.07-0.24-0.925-0.067-1.85-0.134-2.8-0.203-2.81-0.419-5.03-1.32-7.65-2.39-1.65-0.317-3.31-0.577-4.98-0.781-0.918-0.12-1.84-0.24-2.78-0.363-1.92-0.238-3.84-0.475-5.76-0.711-0.915-0.12-1.83-0.24-2.77-0.363-1.25-0.154-1.25-0.154-2.52-0.311-2.19-0.471-2.19-0.471-5.19-2.47 6.79 0.423 13.5 1.16 20.2 2.23 0.71 0.112 1.42 0.225 2.15 0.341 2.94 0.469 5.88 0.944 8.82 1.43 2.18 0.356 4.35 0.701 6.53 1.04 1.28 0.208 2.56 0.417 3.88 0.631 11.8 1.14 24.6-8.77 34.2-14.7 3.03-1.88 6.08-3.74 9.12-5.6 0.607-0.373 1.21-0.745 1.84-1.13 5.49-3.36 11-6.65 16.6-9.91 39.8-23 39.8-23 75.6-51.6 5.15-4.86 10.6-9.35 16.1-13.8 0.699-0.602 1.4-1.2 2.12-1.82 4.66-3.91 9.6-6.76 15-9.49 0.669-0.338 1.34-0.676 2.03-1.02 10.9-5.33 23.7-7.47 34.8-1.66z" fill="#0010F7"/>
<path transform="translate(1310 132)" d="m0 0c0.707 0.0036 1.41 0.00719 2.14 0.0109 1.11-2.19e-4 1.11-2.19e-4 2.25-4.43e-4 2.46 6.99e-4 4.92 0.00849 7.39 0.0163 1.7 0.00186 3.41 0.00329 5.11 0.00429 4.49 0.00383 8.98 0.0137 13.5 0.0247 4.58 0.0102 9.16 0.0148 13.7 0.0198 8.99 0.0107 18 0.0278 27 0.0488-0.33 0.99-0.66 1.98-1 3-0.0802 1.41-0.108 2.82-0.0977 4.23 0.0025 0.723 5e-3 1.45 0.00757 2.19 0.0091 0.912 0.0182 1.82 0.0276 2.76 0.0206 2.91 0.0412 5.82 0.0625 8.81h-21c0.99 1.65 1.98 3.3 3 5 0.433 0.784 0.866 1.57 1.31 2.38 2.25 3.5 4.94 6.51 7.69 9.62 8.8 10.1 8.8 10.1 9.5 13.2 0.165 0.598 0.33 1.2 0.5 1.81 1.48 0.495 1.48 0.495 3 1 2.01 2.4 2.01 2.4 4.12 5.38 0.704 0.977 1.41 1.95 2.13 2.96 1.74 2.66 1.74 2.66 2.74 5.66 1.48 0.99 1.48 0.99 3 2 0.33 0.99 0.66 1.98 1 3 0.722 0.722 1.44 1.44 2.19 2.19 2.89 2.89 5.14 5.9 7.48 9.24 0.44 0.519 0.879 1.04 1.33 1.57h2c1.5-1.93 2.88-3.86 4.25-5.88 4.11-5.92 8.42-11.6 12.9-17.3 4.46-5.69 8.81-11.4 13-17.3 2.05-2.76 4.22-5.37 6.42-8 4.34-5.22 7.9-10.7 11.4-16.5h-20c-1.5-3-1.14-6.09-1.12-9.38-0.00387-0.673-0.00773-1.35-0.0117-2.04 0.00663-3.37 0.239-6.35 1.14-9.59 9.74-0.0463 19.5-0.0818 29.2-0.104 4.52-0.0105 9.05-0.0246 13.6-0.0473 4.36-0.0217 8.73-0.0337 13.1-0.0389 1.67-0.0037 3.33-0.0109 5-0.0217 2.33-0.0145 4.66-0.0165 6.99-0.0156 0.694-0.00719 1.39-0.0144 2.1-0.0218 4.78 0.0207 4.78 0.0207 7.01 2.25-0.33 0.33-0.66 0.66-1 1 0.239 1.61 0.482 3.21 0.738 4.82 0.483 4.03 0.526 8.13 0.262 12.2-0.33 0.33-0.66 0.66-1 1-1.87-0.0131-3.75-0.0828-5.62-0.176-13.4-1.03-13.4-1.03-25.3 3.9-2.43 2.87-4.28 6.05-6.04 9.36-1.73 3.08-3.93 5.74-6.14 8.48-0.831 1.08-1.66 2.16-2.48 3.24-2.83 3.69-5.66 7.37-8.49 11-2.38 3.09-4.74 6.19-7.09 9.3-5.53 7.31-11.1 14.5-17.1 21.4-4.52 5.27-8.91 10.6-12.8 16.4-0.66-0.99-1.32-1.98-2-3-2.23-1.41-2.23-1.41-4.81-2.62-0.852-0.425-1.7-0.851-2.58-1.29-2.55-1.06-4.89-1.65-7.61-2.09 0.33 0.33 0.66 0.66 1 1v1c-5.52 0.368-5.52 0.368-7.59-1.23-1.61-2.02-2.31-3.75-3.09-6.2-0.251-0.762-0.503-1.52-0.762-2.31-0.551-2.25-0.551-2.25-0.551-6.25-1.48 0.495-1.48 0.495-3 1v-2c-2.64-0.33-5.28-0.66-8-1-0.66-1.65-1.32-3.3-2-5 0.33-0.33 0.66-0.66 1-1-1.48-0.99-1.48-0.99-3-2v-2c-1.48-0.495-1.48-0.495-3-1v-2c-1.48-0.495-1.48-0.495-3-1 0.495-0.99 0.495-0.99 1-2h-2c-0.33 0.99-0.66 1.98-1 3-3.27 0.643-4.87 0.931-8 0-2.32-2.36-3.99-4.9-5.8-7.67-2.37-3.59-4.95-6.92-7.63-10.3-4.24-5.34-8.35-10.8-12.4-16.2-0.715-0.929-1.43-1.86-2.17-2.82-0.566-0.926-0.566-0.926-1.14-1.87-2.22-3.25-3.77-4.88-7.68-5.78-3.37-0.263-6.67-0.32-10.1-0.288-1.17-0.0161-2.33-0.0322-3.53-0.0488-2.87-0.0352-5.73-0.0388-8.59-0.0137v-2h-2c-0.0992-6.09-0.173-12 1-18 1.67-1.67 3.71-1.12 5.95-1.12zm74.1 58.1c0.66 0.66 1.32 1.32 2 2v-2h-2z" fill="#706F72"/>
<path transform="translate(806,134)" d="m0 0c9.95-0.117 19.9-0.205 29.9-0.259 4.62-0.0259 9.25-0.0608 13.9-0.118 51.3-0.619 51.3-0.619 67.3 12.4 0.495 1.49 0.495 1.49 1 3 0.959 0.217 0.959 0.217 1.94 0.438 0.681 0.186 1.36 0.371 2.06 0.562 1.06 1.87 1.06 1.87 2 4 0.979 1.02 1.98 2.02 3 3 3.48 4.29 5.15 8.84 7 14 0.378 0.976 0.755 1.95 1.14 2.96 2.62 7.65 3.24 14.7 3.29 22.7 0.00999 0.95 0.02 1.9 0.0303 2.88-0.175 14.5-5.2 26.7-15.2 37.2-6.16 6-15.3 13.3-24.3 13.3-1.28-2.57-1.33-4.77-1.56-7.62-0.126-1.5-0.126-1.5-0.254-3.04-0.0606-0.771-0.121-1.54-0.184-2.34h-3c-0.33-1.32-0.66-2.64-1-4 0.748-0.508 1.5-1.02 2.27-1.54 0.985-0.688 1.97-1.38 2.98-2.09 0.975-0.673 1.95-1.35 2.95-2.04 7.34-6.13 9.9-15.1 11-24.4 0.97-11.5-0.481-25-7.17-34.8-10.9-11.5-26.3-14.1-41.4-14.5-5.3-0.124-10.6-0.207-15.9-0.284-2.21-0.0382-4.42-0.0773-6.63-0.117-5.37-0.0967-10.7-0.177-16.1-0.258-0.33 9.9-0.66 19.8-1 30h-1c-0.708-7.36-1.15-14.6-1-22-3.47-1.98-3.47-1.98-7-4v-2c-1.32-0.33-2.64-0.66-4-1 0.0232-0.88 0.0464-1.76 0.0703-2.67 0.018-1.16 0.0361-2.32 0.0547-3.52 0.0232-1.15 0.0464-2.3 0.0703-3.48-0.19-3.25-0.802-5.42-2.2-8.33-0.99 0.33-1.98 0.66-3 1v-3z" fill="#7B7B7B"/>
<path transform="translate(106 71.1)" d="m0 0c1.37 0.605 1.37 0.605 2.77 1.22 2.77 1.23 5.53 2.47 8.29 3.72 15.3 6.87 30.7 13.2 46.3 19.2 0.743 0.288 1.49 0.576 2.25 0.873 0.757 0.294 1.51 0.587 2.29 0.89 0.77 0.298 1.54 0.597 2.33 0.904 1.58 0.612 3.16 1.22 4.74 1.84 10.9 4.23 21.8 8.56 32.6 13 11.6 4.75 23.2 9.32 34.9 13.9 1.6 0.632 3.21 1.26 4.81 1.9 0.773 0.304 1.55 0.609 2.34 0.922 6.63 2.61 13.2 5.25 19.8 7.93 7.47 3.02 15 5.8 22.6 8.61 1.12 0.417 1.12 0.417 2.27 0.843 28.5 10.6 28.5 10.6 57.8 18.7 1.99 0.452 3.97 0.941 5.95 1.44v2c0.701 0.0804 1.4 0.161 2.12 0.244 3.19 0.37 6.38 0.751 9.56 1.13 1.1 0.126 2.21 0.253 3.34 0.383 1.6 0.193 1.6 0.193 3.23 0.391 0.979 0.115 1.96 0.23 2.97 0.349 2.77 0.502 2.77 0.502 5.29 1.52 2.73 1.08 5 1.37 7.93 1.58 1.01 0.0793 2.03 0.159 3.07 0.24 1.05 0.0741 2.09 0.148 3.17 0.225 2.09 0.154 4.17 0.311 6.26 0.473 0.921 0.0658 1.84 0.132 2.79 0.199 2.26 0.265 2.26 0.265 4.26 1.27 1.55 0.186 3.11 0.321 4.66 0.43 0.951 0.0717 1.9 0.143 2.88 0.217 1.02 0.0752 2.03 0.15 3.08 0.228 9.63 0.764 18.9 2.07 28.4 4.12 0.33 0.99 0.66 1.98 1 3-2.4 1.2-3.86 1.1-6.54 1.06-0.891-0.00773-1.78-0.0155-2.7-0.0234-0.933-0.0129-1.87-0.0258-2.83-0.0391-1.84-0.0254-3.69-0.0465-5.54-0.0625-0.82-0.0116-1.64-0.0232-2.48-0.0352-1.93-0.117-1.93-0.117-2.92 1.1l3 2c-4.62 0.33-9.24 0.66-14 1v-2h-20c-0.33-0.99-0.66-1.98-1-3-2.34-1.12-2.34-1.12-5-2-0.617-0.336-1.23-0.673-1.87-1.02-2.37-1.09-4.29-1.38-6.88-1.61l-2.42-0.227c-0.905-0.0735-0.905-0.0735-1.83-0.148v2c-6.67 1.99-15.1 2.46-21.3-0.875-0.605-0.364-1.21-0.727-1.83-1.1-3.11-1.72-6.4-2.28-9.86-3.02 0.33-0.99 0.66-1.98 1-3-1.98-0.33-3.96-0.66-6-1 0.33 0.99 0.66 1.98 1 3-1.92-0.0874-3.83-0.196-5.75-0.312-1.07-0.058-2.13-0.116-3.23-0.176-3.22-0.547-4.68-1.27-7.02-3.51-0.372-1.32-0.706-2.66-1-4-0.995-1.83-0.995-1.83-3-3-2.68-0.551-5.26-0.776-8-1v-2c-0.742 0.351-1.48 0.701-2.25 1.06-2.88 0.983-3.96 0.97-6.75-0.0625v-2c-0.99 0.33-1.98 0.66-3 1-0.66-0.66-1.32-1.32-2-2h4c-2.97-0.99-2.97-0.99-6-2v-2c-1.33-0.186-1.33-0.186-2.69-0.375-3.07-0.578-5.44-1.44-8.31-2.62-1.93-0.715-3.87-1.42-5.81-2.12-0.976-0.353-1.95-0.706-2.96-1.07-0.736-0.266-1.47-0.531-2.23-0.805 0.639 0.289 1.28 0.577 1.94 0.875 2.06 1.12 2.06 1.12 3.06 3.12-4.95-0.66-9.9-1.32-15-2v-2c-0.99 0.33-1.98 0.66-3 1-1.5-1.38-1.5-1.38-3-3v-2c-0.66-0.33-1.32-0.66-2-1 0.33-0.33 0.66-0.66 1-1-3.46-2.3-4.95-2.26-9-2l-2 1v-2c-1.98 0.99-1.98 0.99-4 2l-3-2c0.33-1.32 0.66-2.64 1-4-2.97-0.495-2.97-0.495-6-1 0.33-0.99 0.66-1.98 1-3-0.771 0.0232-1.54 0.0464-2.34 0.0703l-3.04 0.0547c-0.998 0.0232-2 0.0464-3.02 0.0703-2.6-0.195-2.6-0.195-4.6-2.2-2.89-0.684-2.89-0.684-6.12-1.12-1.1-0.168-2.19-0.335-3.32-0.508-1.26-0.182-1.26-0.182-2.55-0.367-0.33-0.99-0.66-1.98-1-3-1.87-0.802-1.87-0.802-4.06-1.19-1.1-0.238-1.1-0.238-2.22-0.48-0.566-0.11-1.13-0.219-1.71-0.332 0.33-0.99 0.66-1.98 1-3h-8c-0.33-0.99-0.66-1.98-1-3-1.65 0.33-3.3 0.66-5 1v-2h-2v3h-2c-0.33-0.66-0.66-1.32-1-2-0.619-0.309-1.24-0.619-1.88-0.938-2.25-1.13-3.59-2.07-5.12-4.06v-4l-3.12-0.375c-4.86-0.783-9.67-1.98-13.9-4.62-0.33-0.99-0.66-1.98-1-3-0.915-0.098-1.83-0.196-2.77-0.297-1.19-0.15-2.38-0.299-3.6-0.453-1.18-0.139-2.37-0.278-3.59-0.422-3.04-0.828-3.04-0.828-4.29-2.86-0.248-0.65-0.495-1.3-0.75-1.97-2.56-0.812-2.56-0.812-5-1 0.495-1.48 0.495-1.48 1-3-0.904 0.119-1.81 0.237-2.74 0.359-1.18 0.129-2.36 0.258-3.57 0.391-1.17 0.139-2.34 0.278-3.55 0.422-3.14-0.172-3.14-0.172-5.05-2.03-1.08-2.14-1.08-2.14-1.08-4.14-2.47-0.99-2.47-0.99-5-2v-2c-1.09 0.0206-2.19 0.0413-3.31 0.0625-3.69-0.0625-3.69-0.0625-6.69-1.06v2c-7.18 2.31-7.18 2.31-10.9 0.875-2.2-2-2.76-2.97-3.06-5.88h-3v-2h-2c-0.33 0.66-0.66 1.32-1 2-0.33-0.99-0.66-1.98-1-3 0.33-0.66 0.66-1.32 1-2-4.95 1.48-4.95 1.48-10 3 0-4 0-4 1.21-5.52 0.568-0.427 1.14-0.853 1.72-1.29 0.545-0.44 1.09-0.879 1.65-1.33 7.25-2.57 14.8 1.22 21.3 4.21zm56.1 33.9h2c-0.33 0.66-0.66 1.32-1 2-0.33-0.66-0.66-1.32-1-2z" fill="#E00081"/>
<path transform="translate(1438,132)" d="m0 0c9.74-0.0463 19.5-0.0818 29.2-0.104 4.52-0.0105 9.05-0.0246 13.6-0.0473 4.36-0.0217 8.73-0.0337 13.1-0.0389 1.67-0.0037 3.33-0.0109 5-0.0217 2.33-0.0145 4.66-0.0165 6.99-0.0156 0.694-0.00719 1.39-0.0144 2.1-0.0218 4.78 0.0207 4.78 0.0207 7.01 2.25-0.33 0.33-0.66 0.66-1 1 0.239 1.61 0.482 3.21 0.738 4.82 0.483 4.03 0.526 8.13 0.262 12.2-0.495 0.495-0.495 0.495-1 1-1.87-0.0131-3.75-0.0828-5.62-0.176-13.4-1.03-13.4-1.03-25.3 3.9-2.43 2.87-4.28 6.05-6.04 9.36-1.73 3.08-3.93 5.74-6.14 8.48-0.831 1.08-1.66 2.16-2.48 3.24-2.82 3.68-5.65 7.36-8.48 11-2.44 3.17-4.86 6.34-7.28 9.52-0.571 0.75-1.14 1.5-1.73 2.27-1.11 1.46-2.22 2.92-3.32 4.38-3.4 4.47-6.95 8.76-10.6 13-0.99-1.32-1.98-2.64-3-4-1.32 1.65-2.64 3.3-4 5-3.3-0.66-6.6-1.32-10-2l2-2h-6c1.18-8 5.79-13.6 10.7-19.7 1.27-1.61 2.54-3.22 3.8-4.83 0.608-0.773 1.22-1.55 1.84-2.34 2.06-2.65 4.03-5.35 5.98-8.08 2.61-3.65 5.36-7.12 8.25-10.6 4.34-5.22 7.9-10.7 11.4-16.5h-20c-1.5-3-1.14-6.09-1.12-9.38-0.0058-1.01-0.0058-1.01-0.0117-2.04 0.00663-3.37 0.239-6.35 1.14-9.59z" fill="#8F9091"/>
<path transform="translate(1388,246)" d="m0 0h3c0.495 3.47 0.495 3.47 1 7 2.31 0.66 4.62 1.32 7 2v3l4 1c-1.32 1.65-2.64 3.3-4 5v-3c-0.201 0.981-0.402 1.96-0.609 2.97-1.42 4.95-4.46 8.51-7.64 12.5-1.13 1.44-2.26 2.87-3.39 4.31-0.562 0.708-1.12 1.42-1.7 2.15-2.1 2.67-4.12 5.38-6.15 8.1-1.56 2.08-3.14 4.14-4.72 6.19-8.25 10.6-8.25 10.6-15.8 21.8 0.639-0.186 1.28-0.371 1.94-0.562 1.02-0.217 1.02-0.217 2.06-0.438 0.33 0.33 0.66 0.66 1 1 2.86 0.237 5.7 0.422 8.56 0.562 1.21 0.0648 1.21 0.0648 2.44 0.131 2 0.106 4 0.207 5.99 0.307-0.164 0.664-0.327 1.33-0.496 2.01-0.61 3.62-0.612 7.15-0.566 10.8 0.00451 0.693 0.00902 1.39 0.0137 2.1 0.0117 1.7 0.0296 3.39 0.0488 5.09-9.74 0.0694-19.5 0.123-29.2 0.155-4.52 0.0157-9.05 0.037-13.6 0.0709-4.36 0.0325-8.73 0.0505-13.1 0.0583-1.67 0.00556-3.33 0.0164-5 0.0326-2.33 0.0217-4.66 0.0248-6.99 0.0234-1.04 0.0162-1.04 0.0162-2.1 0.0327-1.92-0.0125-1.92-0.0125-5.01-0.373-2.25-3.38-2.25-4.61-2.19-8.56 0.00645-0.971 0.0129-1.94 0.0195-2.94 0.168-2.5 0.168-2.5 1.17-4.5 0.635-0.0198 1.27-0.0396 1.92-0.0601 2.9-0.0958 5.8-0.205 8.7-0.315 0.999-0.0309 2-0.0619 3.03-0.0938 7.41-0.194 7.41-0.194 14.3-2.53 2.19-2.5 2.19-2.5 3.94-5.56 2.98-4.76 6.11-9.21 9.62-13.6 1.22-1.56 2.35-3.19 3.45-4.84h2c0.226-0.691 0.451-1.38 0.684-2.09 1.62-3.58 3.9-6.39 6.38-9.41 4.65-5.77 8.93-11.7 13.1-17.9 1.88-2.64 1.88-2.64 3.32-4.07 1.67-1.68 2.99-3.44 4.37-5.36 0.777-1.07 0.777-1.07 1.57-2.16 1.08-1.5 2.16-3 3.23-4.51 0.518-0.708 1.04-1.42 1.57-2.15 0.702-0.977 0.702-0.977 1.42-1.97 0.46-0.469 0.92-0.938 1.39-1.42z" fill="#959697"/>
<path transform="translate(1067 198)" d="m0 0c0.963-0.00564 1.93-0.0113 2.92-0.0171 13.8 0.14 26.7 4.17 37.2 13.3 1.45 1.27 1.45 1.27 2.94 2.56 2.19 2.58 2.78 4.1 3.06 7.44h-2c-0.33 0.66-0.66 1.32-1 2 0.33 0.33 0.66 0.66 1 1 1.47 2.36 2.09 3.46 1.62 6.25-0.206 0.577-0.412 1.16-0.625 1.75-8.57 1.43-8.57 1.43-12-1v-3c-0.99-0.309-0.99-0.309-2-0.625-3.45-1.58-6.15-3.62-9.13-5.94-4.05-3.12-7.5-4.12-12.4-5-7.21-1.32-7.21-1.32-9.44-2.44-13.4 0.971-26.8 4.27-36.4 14.1-6.71 8.9-9.59 18.9-10.6 29.9 1.32 0.33 2.64 0.66 4 1-4.81 3.82-10.1 3.7-16 4v3h-3l-1 2c-0.66-0.33-1.32-0.66-2-1-0.495 0.99-0.495 0.99-1 2-0.66-0.99-1.32-1.98-2-3-0.049 1.19-0.098 2.38-0.148 3.61-0.075 1.57-0.151 3.13-0.227 4.7-0.0309 0.786-0.0619 1.57-0.0938 2.38-0.0387 0.757-0.0773 1.51-0.117 2.29-0.0314 0.696-0.0628 1.39-0.0952 2.11-0.319 1.9-0.319 1.9-2.32 4.9-2.43-4.74-2.35-9.18-2.31-14.4 0.00737-1.33 0.00737-1.33 0.0149-2.69 0.316-18 5.68-37.5 18.3-50.9 1.66-1 3.33-2 5-3 1.7-1.26 3.38-2.53 5.06-3.81 14.1-10.2 27.7-13.4 44.8-13.5z" fill="#939495"/>
<path transform="translate(1179 253)" d="m0 0c0.891-0.00336 1.78-0.00672 2.7-0.0102 2.95-0.00951 5.9-0.0115 8.85-0.0125 2.05-0.00321 4.1-0.00658 6.15-0.0101 4.3-0.00599 8.59-0.00784 12.9-0.00725 5.51 1.02e-4 11-0.0136 16.5-0.0308 4.23-0.0111 8.46-0.0131 12.7-0.0126 2.03-0.00118 4.06-0.00561 6.09-0.0133 2.84-0.00978 5.68-0.00693 8.52-8.95e-4 0.841-0.00562 1.68-0.0112 2.55-0.017 7.04 0.0381 7.04 0.0381 10.3 2.26-0.163 0.575-0.326 1.15-0.494 1.74-0.496 2.21-0.621 4.1-0.604 6.37 0.00322 0.754 0.00645 1.51 0.00977 2.29 0.00838 0.777 0.0168 1.55 0.0254 2.36 0.00451 0.793 0.00902 1.59 0.0137 2.4 0.0117 1.95 0.0297 3.9 0.0488 5.85-1.46 0.027-2.92 0.0464-4.38 0.0625-0.812 0.0116-1.62 0.0232-2.46 0.0352-2.16-0.0977-2.16-0.0977-4.16-1.1-1.37 0.0816-2.74 0.232-4.11 0.413-7.38 0.822-14.8 0.86-22.2 0.973-1.56 0.0257-3.13 0.0515-4.69 0.0773-3.26 0.0526-6.52 0.102-9.77 0.148-4.16 0.0606-8.33 0.135-12.5 0.212-3.22 0.0577-6.44 0.106-9.66 0.152-1.54 0.0233-3.07 0.05-4.61 0.0803-2.15 0.0413-4.29 0.0694-6.44 0.0943-1.83 0.0288-1.83 0.0288-3.69 0.0582-3.47-0.217-6.15-0.849-9.35-2.21-1.5-3-1.14-6.09-1.12-9.38-0.00387-0.673-0.00773-1.35-0.0117-2.04 0.0137-6.97 0.0137-6.97 1.14-9.59 3.92-1.31 7.64-1.15 11.7-1.15z" fill="#959697"/>
<path transform="translate(806,134)" d="m0 0c9.99-0.117 20-0.205 30-0.259 4.64-0.0259 9.28-0.0609 13.9-0.118 4.49-0.0551 8.99-0.0844 13.5-0.0972 1.7-0.00911 3.4-0.0269 5.1-0.0543 13.1-0.203 28.5 0.557 39.5 8.53 1.25 2.5 1.25 2.5 2 5 0.495 1.49 0.495 1.49 1 3 1.36 0.433 1.36 0.433 2.75 0.875 3.9 1.35 5.7 2.9 8.25 6.12 0.312 2.81 0.312 2.81 0 5h-2c-0.33 0.969-0.66 1.94-1 2.94-2 3.06-2 3.06-3.98 3.68-2 0.23-4.01 0.313-6.02 0.379-0.371-1.67-0.371-1.67-0.75-3.38-0.86-3.67-0.86-3.67-3.38-5.06-0.619-0.186-1.24-0.371-1.88-0.562-0.495 1.49-0.495 1.49-1 3-3.7 0-5.5-1.15-8.75-2.88-10.6-5.42-20.6-6.24-32.3-6.44-1.55-0.0312-1.55-0.0312-3.13-0.063-3.27-0.065-6.54-0.124-9.81-0.183-2.23-0.0432-4.46-0.0869-6.68-0.131-5.44-0.107-10.9-0.207-16.3-0.307-0.33 9.9-0.66 19.8-1 30h-1c-0.708-7.36-1.15-14.6-1-22-3.47-1.98-3.47-1.98-7-4v-2c-1.32-0.33-2.64-0.66-4-1 0.0232-0.88 0.0464-1.76 0.0703-2.67 0.018-1.16 0.0361-2.32 0.0547-3.52 0.0232-1.15 0.0464-2.3 0.0703-3.48-0.19-3.25-0.802-5.42-2.2-8.33-0.99 0.33-1.98 0.66-3 1v-3z" fill="#7B7B7E"/>
<path transform="translate(903,271)" d="m0 0c0.619 0.33 1.24 0.66 1.88 1 2.04 1.14 2.04 1.14 4.12 1 0.208 0.499 0.415 0.998 0.629 1.51 2.12 4.93 4.46 9.73 6.93 14.5 0.579 1.11 1.16 2.23 1.75 3.38 1.48 2.9 1.48 2.9 4.68 3.62 1.33 2.12 1.33 2.12 2.66 4.88 0.482 0.985 0.964 1.97 1.46 2.98 0.495 1.04 0.99 2.07 1.5 3.14 0.991 2.04 1.98 4.08 2.98 6.12 0.437 0.91 0.873 1.82 1.32 2.76 0.903 2.05 0.903 2.05 2.08 3.12 1.49 0.157 2.98 0.251 4.47 0.316 0.899 0.0419 1.8 0.0838 2.72 0.127 0.946 0.0393 1.89 0.0786 2.87 0.119 0.949 0.0432 1.9 0.0864 2.88 0.131 2.35 0.106 4.71 0.208 7.06 0.307 0.562 1.94 0.562 1.94 1 4-0.33 0.33-0.66 0.66-1 1-0.0731 2.53-0.0925 5.03-0.0625 7.56 0.00451 0.711 0.00902 1.42 0.0137 2.15 0.0118 1.76 0.0298 3.52 0.0488 5.28-4.7 0.174-9.39 0.301-14.1 0.385-1.59 0.035-3.19 0.0826-4.78 0.144-14.9 0.556-14.9 0.556-20-3.65-2.85-3.16-5.14-6.56-7.16-10.3-0.487-0.895-0.487-0.895-0.984-1.81-1.03-1.91-2.03-3.83-3.02-5.76-0.33-0.642-0.66-1.28-1-1.94-2.03-3.97-4.01-7.97-5.98-12-1.76-3.58-3.55-7.14-5.33-10.7-0.642-1.28-1.28-2.57-1.93-3.85-1.15-2.3-2.34-4.59-3.55-6.86-0.398-0.879-0.797-1.76-1.21-2.66 0.33-0.66 0.66-1.32 1-2h3v6c0.701-0.474 1.4-0.949 2.12-1.44 3.04-1.65 5.47-2.17 8.88-2.56-0.33-0.99-0.66-1.98-1-3 0.99-0.66 1.98-1.32 3-2-0.186-0.639-0.371-1.28-0.562-1.94-0.144-0.681-0.289-1.36-0.438-2.06 0.33-0.33 0.66-0.66 1-1zm19 28 1 2zm2 4 1 2zm6 11 1 2z" fill="#838385"/>
<path transform="translate(1373,195)" d="m0 0h2v2c1.66 1.34 3.33 2.67 5 4 4 4.32 4 4.32 4 9 2.97 0.33 5.94 0.66 9 1v2h2c0.67 2.12 1.34 4.25 2 6.38 0.371 1.18 0.743 2.37 1.12 3.59 0.875 3.04 0.875 3.04 0.875 5.04h6c0.495-0.99 0.495-0.99 1-2 6.79 1.59 14 4.02 18 10v3c0.928 0.371 0.928 0.371 1.88 0.75 2.48 1.46 3.08 2.63 4.12 5.25h-3c-1.69-2-1.69-2-3-4-1.27 5.06-1.27 5.06-0.0938 9.95 1.92 2.7 3.89 4.88 6.41 7.05 2.46 2.91 1.97 5.32 1.69 9 0.639 0.268 1.28 0.536 1.94 0.812 2.06 1.19 2.06 1.19 3.06 4.19-0.99 0.66-1.98 1.32-3 2 0.66 0.66 1.32 1.32 2 2h-2c0.66 1.65 1.32 3.3 2 5 0.784-0.0619 1.57-0.124 2.38-0.188 1.3 0.0928 1.3 0.0928 2.62 0.188 2.13 3.19 2.5 5.27 3 9h2c0.33-0.66 0.66-1.32 1-2 0.33 0.99 0.66 1.98 1 3-0.33 0.66-0.66 1.32-1 2h2c-0.33 0.99-0.66 1.98-1 3-0.99 0.33-1.98 0.66-3 1-0.66-1.32-1.32-2.64-2-4h-4c-1.44-1.37-1.44-1.37-2.78-3.3-0.507-0.72-1.01-1.44-1.54-2.18-0.535-0.788-1.07-1.58-1.62-2.39-1.15-1.65-2.3-3.29-3.46-4.94-0.591-0.853-1.18-1.71-1.79-2.59-2.93-4.2-5.93-8.33-8.94-12.5-1.07-1.48-2.13-2.95-3.2-4.43-1.87-2.59-3.76-5.15-5.68-7.7-3.1 0.692-3.1 0.692-4.38 3.06-1.62 1.94-1.62 1.94-4.31 2.19-0.763-0.0825-1.53-0.165-2.31-0.25v-3c-1.11-0.0825-2.23-0.165-3.38-0.25-3.62-0.75-3.62-0.75-5.12-2.56-0.561-2.45-0.339-3.84 0.5-6.19-3.94 1.51-5.61 3.84-8 7.25-0.694 0.981-1.39 1.96-2.1 2.97-1.46 2.14-2.88 4.28-4.27 6.46-0.536 0.763-1.07 1.53-1.62 2.31h-2c-0.371 1.08-0.371 1.08-0.75 2.19-1.39 3.13-3.08 5.15-5.25 7.81-2.2 2.82-4.38 5.66-6.56 8.5-0.577 0.746-1.15 1.49-1.75 2.26-2.8 3.65-5.33 7.28-7.69 11.2-0.974 1.03-1.97 2.03-3 3-1.06 1.27-2.1 2.57-3.12 3.88-0.614 0.782-1.23 1.56-1.86 2.37-1.49 2.03-2.84 4.03-4.16 6.16-0.371 0.583-0.742 1.17-1.12 1.77-1.06 1.69-2.1 3.39-3.13 5.1-4.09 4.28-8.37 4.54-14.1 4.86-2.52 0.0538-5.03 0.0345-7.56-0.0164-0.866-0.00902-1.73-0.018-2.62-0.0273-2.1-0.0233-4.21-0.0591-6.31-0.0977 0.33-1.32 0.66-2.64 1-4 0.96-0.0297 0.96-0.0297 1.94-0.0601 2.92-0.0956 5.83-0.205 8.75-0.315 1.01-0.0309 2.01-0.0619 3.05-0.0938 0.976-0.0387 1.95-0.0773 2.96-0.117 0.895-0.0314 1.79-0.0628 2.71-0.0952 3.99-0.491 6.76-1.41 9.48-4.4 0.633-0.901 1.27-1.8 1.92-2.73 0.78-1.09 1.56-2.17 2.34-3.25 0.441-0.615 0.882-1.23 1.34-1.86 3.03-4.16 6.19-8.23 9.32-12.3 7.61-9.97 15.2-20 22.6-30.1 3.5-4.7 7.04-9.34 10.7-13.9 6.43-7.81 6.43-7.81 10.8-16.8-1.06-1.97-1.06-1.97-2.72-3.95-0.603-0.766-1.21-1.53-1.83-2.32-0.645-0.797-1.29-1.59-1.95-2.42-0.614-0.778-1.23-1.56-1.86-2.36-3.58-4.51-7.29-8.88-11.1-13.2-1.89-2.16-3.71-4.38-5.48-6.64-0.88-1.11-0.88-1.11-1.78-2.24-1.29-1.88-1.29-1.88-1.29-3.88h7c0.33-0.66 0.66-1.32 1-2z" fill="#767577"/>
<path transform="translate(775,132)" d="m0 0c12.6-0.0466 25.2-0.082 37.8-0.104 5.85-0.0104 11.7-0.0244 17.6-0.0473 5.66-0.0219 11.3-0.0337 17-0.0389 2.15-0.00366 4.29-0.0108 6.44-0.0217 10.1-0.0494 20.2-2.49e-4 30.3 1.09 0.713 0.0767 1.43 0.153 2.16 0.232 5.95 0.734 11.3 2.42 16.8 4.89-3.92 1.31-5.6 0.344-9.52-0.899-9.07-2.63-17.9-2.71-27.2-2.71-1.75-0.015-3.5-0.0318-5.25-0.0501-4.55-0.0432-9.1-0.0636-13.7-0.0787-4.67-0.0197-9.33-0.0617-14-0.102-9.12-0.0748-18.2-0.125-27.3-0.16 0.495 0.99 0.495 0.99 1 2h2c3.18 4.02 3.24 6.82 2.69 11.8-0.12 1.16-0.24 2.32-0.363 3.52-0.107 0.88-0.214 1.76-0.324 2.67 1.32 0.33 2.64 0.66 4 1v2c0.949 0.289 1.9 0.577 2.88 0.875 3.12 1.12 3.12 1.12 5.12 3.12 0.16 2.98 0.16 2.98 0.0625 6.62-0.0936 3.75-0.0797 7.25 0.433 11 0.634 4.87 0.63 9.68 0.602 14.6-0.00141 0.943-0.00283 1.89-0.00429 2.86-0.00556 2.98-0.0181 5.97-0.0309 8.95-0.00502 2.04-0.00958 4.07-0.0137 6.11-0.011 4.96-0.0282 9.93-0.0488 14.9h-1c-0.0146-0.785-0.0292-1.57-0.0442-2.38-0.0753-3.62-0.172-7.25-0.268-10.9-0.0338-1.85-0.0338-1.85-0.0684-3.74-0.233-8.04-1.31-15.3-3.62-23-1.14 0.232-1.14 0.232-2.3 0.469-1.95 0.385-3.92 0.723-5.89 1.03-2.75 0.352-2.75 0.352-4.81 1.5l-2-1c-0.33 3.96-0.66 7.92-1 12h-1c-0.33 5.61-0.66 11.2-1 17h-1c-0.78-14.1-1.26-28.2-1.56-42.2-0.0434-1.93-0.087-3.86-0.131-5.8-0.105-4.65-0.207-9.3-0.307-14h2v-2c-0.747 0.0105-1.49 0.0209-2.26 0.0317-3.37 0.0415-6.74 0.0676-10.1 0.0933-1.18 0.0168-2.35 0.0335-3.56 0.0508-1.68 0.00967-1.68 0.00967-3.4 0.0195-1.04 0.0105-2.07 0.0209-3.14 0.0317-2.52-0.227-2.52-0.227-4.52-2.23-0.199-2.5-0.278-4.87-0.25-7.38-0.00773-0.673-0.0155-1.35-0.0234-2.04 0.0149-3.79 0.453-6.3 2.27-9.59z" fill="#7C7B7C"/>
<path transform="translate(908,217)" d="m0 0 1 2c-3.86 5.77-7.98 10.4-14 14h-2c0.495 1.98 0.495 1.98 1 4h3c1.26 2.52 1.33 4.63 1.56 7.44 0.0838 0.968 0.168 1.94 0.254 2.93 0.131 1.87 0.184 3.75 0.184 5.63 0.831 1.72 0.831 1.72 2.02 3.49 0.441 0.695 0.881 1.39 1.33 2.11 0.481 0.751 0.962 1.5 1.46 2.28 4.41 7.05 8.54 14.2 12.4 21.6 0.49 0.905 0.979 1.81 1.48 2.74 0.444 0.846 0.887 1.69 1.34 2.56 0.396 0.75 0.792 1.5 1.2 2.27 0.722 1.98 0.722 1.98-0.278 4.98-0.66-0.66-1.32-1.32-2-2v-3c-0.66-0.33-1.32-0.66-2-1-3-5.42-3-5.42-3-8-0.66-0.33-1.32-0.66-2-1 0.495-0.99 0.495-0.99 1-2-0.66-0.33-1.32-0.66-2-1-0.33-0.99-0.66-1.98-1-3-0.66-0.33-1.32-0.66-2-1-0.495 0.99-0.495 0.99-1 2-0.99-0.99-1.98-1.98-3-3 0.227 0.598 0.454 1.2 0.688 1.81 0.103 0.722 0.206 1.44 0.312 2.19-1.44 1.75-1.44 1.75-3 3 0.33 0.99 0.66 1.98 1 3-0.615 0.133-1.23 0.266-1.86 0.402-1.21 0.265-1.21 0.265-2.45 0.535-1.2 0.261-1.2 0.261-2.43 0.527-2.41 0.534-2.41 0.534-5.26 1.54v-6c-1.49 0.495-1.49 0.495-3 1-3.94-3.36-5.66-8.11-7.89-12.7-2.94-4.64-5.99-8.45-11.5-9.98-2.54-0.373-5.03-0.582-7.59-0.719-0.875-0.0683-1.75-0.137-2.65-0.207-2.14-0.163-4.27-0.294-6.41-0.418v-2h-3v-3h2c-0.33-0.99-0.66-1.98-1-3-0.66 0.33-1.32 0.66-2 1v-5c1.32-0.66 2.64-1.32 4-2v-3h-25c-0.66-1.32-1.32-2.64-2-4 0.615 0.166 1.23 0.332 1.86 0.503 4.45 0.705 8.8 0.545 13.3 0.446 1.48-0.0283 1.48-0.0283 2.99-0.0572 2.09-0.0418 4.18-0.0865 6.27-0.134 3.17-0.0698 6.33-0.124 9.5-0.178 2.04-0.0427 4.08-0.0863 6.11-0.131 0.934-0.0147 1.87-0.0294 2.83-0.0445 12.5-0.319 24.1-2.55 34.1-10.4 2.44-2.58 4.75-5.25 7-8z" fill="#777678"/>
<path transform="translate(1066 196)" d="m0 0c1.75-0.028 1.75-0.028 3.54-0.0566 15.6 0.114 29.6 5.42 40.7 16.4 6.25 6.45 10.5 11.9 12.1 20.8 0.783 3.48 2.2 6.64 3.63 9.91 3.44 9.38 1.9 19.7 1.9 29.5h-49c-1-4-1-4-0.0625-6.25 0.351-0.577 0.701-1.15 1.06-1.75 3.08-0.197 6.17-0.381 9.25-0.562 1.31-0.0841 1.31-0.0841 2.64-0.17 0.844-0.0483 1.69-0.0967 2.56-0.146 1.16-0.0707 1.16-0.0707 2.35-0.143 2.23 0.022 4.07 0.391 6.2 1.02v-3c1.98 0.33 3.96 0.66 6 1 0.495-1.49 0.495-1.49 1-3-0.33-0.33-0.66-0.66-1-1-0.495 0.99-0.495 0.99-1 2-1.16-0.327-2.33-0.653-3.52-0.99-6.96-1.54-14-1.24-21.1-1.17-1.51 0.00629-3.02 0.0115-4.53 0.0158-3.96 0.0132-7.91 0.0376-11.9 0.0654-6.33 0.0433-12.7 0.073-19 0.096-2.19 0.0101-4.38 0.0272-6.58 0.045-7.2 0.0431-14.3-0.109-21.4-1.06 0.33-1.32 0.66-2.64 1-4 41.1 0.495 41.1 0.495 83 1-0.99-5.28-1.98-10.6-3-16 0.495-0.99 0.495-0.99 1-2-0.66-0.33-1.32-0.66-2-1-1.05-1.97-2.05-3.98-3-6-0.33-0.66-0.66-1.32-1-2 1.94 0.312 1.94 0.312 4 1 0.33 0.99 0.66 1.98 1 3 4.78 1.02 4.78 1.02 9.44 0.0625 0.516-0.351 1.03-0.701 1.56-1.06-0.33-1.65-0.66-3.3-1-5-1.48-0.495-1.48-0.495-3-1 1.38-1.5 1.38-1.5 3-3h2c-3.14-8.04-10.3-13.5-18-17-18-7.36-40.4-7.77-58.6-0.559-8.15 3.8-14.7 8.57-21.4 14.6-0.66-0.33-1.32-0.66-2-1 15.5-15.4 31.4-21.3 53.1-21.5zm50.9 27.5 1 2zm-14 19 1 2z" fill="#7A7A7A"/>
<path transform="translate(1310 132)" d="m0 0c0.707 0.0036 1.41 0.00719 2.14 0.0109 1.11-2.19e-4 1.11-2.19e-4 2.25-4.43e-4 2.46 6.99e-4 4.92 0.00849 7.39 0.0163 1.7 0.00186 3.41 0.00329 5.11 0.00429 4.49 0.00383 8.98 0.0137 13.5 0.0247 4.58 0.0102 9.16 0.0148 13.7 0.0198 8.99 0.0107 18 0.0278 27 0.0488-0.33 0.99-0.66 1.98-1 3-0.0802 1.41-0.108 2.82-0.0977 4.23 0.00322 0.802 0.00645 1.6 0.00977 2.43 0.00838 0.833 0.0168 1.67 0.0254 2.53 0.00451 0.845 0.00902 1.69 0.0137 2.56 0.0118 2.08 0.0297 4.17 0.0488 6.25h-15c1.32-0.66 2.64-1.32 4-2 1.3-3.55 1.3-3.55 2-7 0.495 0.99 0.495 0.99 1 2h6c0.33-1.65 0.66-3.3 1-5-3.73 0.139-7.46 0.288-11.2 0.438-1.06 0.0393-2.11 0.0786-3.2 0.119-1.02 0.0419-2.04 0.0838-3.1 0.127-1.41 0.055-1.41 0.055-2.84 0.111-2.63 0.202-5.11 0.632-7.68 1.21v1h-9v2c1.48 0.0269 2.96 0.0463 4.44 0.0625 1.24 0.0174 1.24 0.0174 2.5 0.0352 2.06 0.135 2.06 0.135 3.07-1.1 3-1 3-1 6-1v3h-4v2c-2.31 0.33-4.62 0.66-7 1 0.66 0.99 1.32 1.98 2 3v3c-3.3-0.33-6.6-0.66-10-1 1.32-0.66 2.64-1.32 4-2-1.89-0.681-1.89-0.681-4-1-0.66 0.66-1.32 1.32-2 2-3.06 0.688-3.06 0.688-6 1-0.33-0.33-0.66-0.66-1-1-1.85-0.158-3.71-0.251-5.57-0.316-1.12-0.0419-2.25-0.0838-3.41-0.127-1.18-0.0393-2.37-0.0786-3.59-0.119-1.19-0.0432-2.38-0.0864-3.6-0.131-2.95-0.106-5.89-0.208-8.84-0.307v-2h-2c-0.0992-6.09-0.173-12 1-18 1.67-1.67 3.71-1.12 5.95-1.12z" fill="#6B6A6E"/>
<path transform="translate(473 184)" d="m0 0c1.42-0.00986 1.42-0.00986 2.87-0.0199 3.15-0.0198 6.29-0.0314 9.44-0.0414 1.07-0.00408 2.15-0.00815 3.25-0.0124 5.68-0.0209 11.4-0.0352 17-0.0445 5.87-0.0111 11.7-0.0454 17.6-0.0852 4.51-0.0261 9.02-0.0345 13.5-0.0381 2.16-0.00487 4.33-0.0165 6.49-0.035 3.03-0.0243 6.06-0.0234 9.09-0.0165 0.893-0.0128 1.79-0.0256 2.71-0.0388 6.77 0.0565 10.4 1.97 15.3 6.82 2.19 3.48 2.83 5.56 2.69 9.69-2.14 3.73-4.87 6.3-8.5 8.56-3.31 0.579-5.44-0.282-8.5-1.56-0.495-5.44-0.495-5.44-1-11h-5v-3c-3.82 0.275-3.82 0.275-7 2-1.42-0.0309-1.42-0.0309-2.88-0.0625-3.29-0.214-3.29-0.214-6.12 2.06-3.33 0.16-3.33 0.16-7.25 0.0625-5.07-0.117-9.74 0.193-14.8 0.938-2.34-0.251-4.68-0.586-7-1-1.24-0.124-2.48-0.248-3.75-0.375-3.25-0.625-3.25-0.625-4.65-2.06-3.98-3.89-10.7-4.52-16.1-4.65-2.23 0.0527-4.46 0.14-6.68 0.27-3.3-0.217-4.42-1.02-6.85-3.19-1.32-0.696-2.65-1.37-4-2 2.14-2.14 7.05-1.17 10-1.18z" fill="#F3008C"/>
<path transform="translate(913,189)" d="m0 0c0.99 0.66 1.98 1.32 3 2 0.339 2.33 0.672 4.67 1 7 1.87 2.58 4.12 3.71 7 5v2c1.05 0.206 2.1 0.412 3.19 0.625 4.55 1.32 6.34 3.36 8.81 7.38 0.356 7.83-5.4 15.6-10.3 21.2-7.33 7.71-14.6 12.2-24.7 15.8h-2c-1.28-2.57-1.33-4.77-1.56-7.62-0.0838-1-0.168-2.01-0.254-3.04-0.0606-0.771-0.121-1.54-0.184-2.34h-3c-0.33-1.32-0.66-2.64-1-4 0.748-0.508 1.5-1.02 2.27-1.54 0.985-0.688 1.97-1.38 2.98-2.09 0.975-0.673 1.95-1.35 2.95-2.04 7.34-6.13 9.94-15.3 11.1-24.5 0.411-4.59 0.61-9.18 0.73-13.8z" fill="#959697"/>
<path transform="translate(1368 141)" d="m0 0c1.6 0.00677 1.6 0.00677 3.23 0.0137 2.61 0.0117 5.22 0.0281 7.83 0.0488v5c-2.67 1.33-4.17 0.671-7 0-0.227 0.784-0.454 1.57-0.688 2.38-1.31 2.62-1.31 2.62-3.56 3.94-3.02 0.754-5.65 0.832-8.75 0.688 0.474 0.784 0.949 1.57 1.44 2.38 0.901 1.51 1.77 3.05 2.56 4.62-0.608 2.35-1.27 4.69-2 7 0.474 0.371 0.949 0.743 1.44 1.12 1.56 1.88 1.56 1.88 2.06 4.94 0.247 1.45 0.247 1.45 0.5 2.94 0.99 0.66 1.98 1.32 3 2 2.3 3.28 3.43 6.04 4 10-1.32 0.66-2.64 1.32-4 2 1.65 0.33 3.3 0.66 5 1-1.12 2.94-1.12 2.94-3 6-3.12 0.691-3.12 0.691-6 1-0.45-0.632-0.9-1.26-1.36-1.91-4.35-6.05-8.85-12-13.5-17.8-3.81-4.83-7.52-9.72-11.2-14.7-1.36-1.81-2.78-3.59-4.23-5.34-1.75-2.29-1.75-2.29-1.75-4.29 0.969-0.289 1.94-0.577 2.94-0.875 3.17-0.767 3.17-0.767 4.06-3.12 3.46 1.49 3.46 1.49 7 3-0.99 0.33-1.98 0.66-3 1 1.98 0.66 3.96 1.32 6 2-1.07-2.92-1.78-4.78-4-7h9v-2h4c-0.33-0.66-0.66-1.32-1-2h-3-2c0.33 0.99 0.66 1.98 1 3h-2v-2l-2.25 0.562c-2.7 0.43-4.2 0.289-6.75-0.562v-2c3.46-0.495 3.46-0.495 7-1v-1c6.33-1.14 12.5-1.11 18.9-1.06z" fill="#7B7B7B"/>
<path transform="translate(441,271)" d="m0 0c22.3 6.26 44.5 12.5 66.5 19.8 3.09 1.02 6.18 2.04 9.28 3.04 23.5 7.66 46.8 16 69.9 25.1 0.79 0.31 1.58 0.621 2.39 0.941 0.579 0.23 1.16 0.46 1.75 0.697 4.05 1.59 8.12 3.03 12.3 4.35 10.8 3.48 21.3 7.72 31.8 12.1 1.81 0.756 3.62 1.51 5.43 2.27 5.24 2.19 10.5 4.4 15.7 6.61 0.718 0.303 1.44 0.607 2.18 0.92 7.55 3.19 15.1 6.42 22.6 9.68 3.38 1.46 6.76 2.92 10.1 4.37 2.24 0.968 4.47 1.94 6.71 2.91 1 0.428 2 0.857 3.04 1.3 18.3 7.99 18.3 7.99 21.9 15.9 0.505 2.29 0.156 3.72-0.574 5.93-0.33-0.866-0.66-1.73-1-2.62-5.22-8.8-14.9-11.7-24-15.4-1.61-0.7-3.21-1.41-4.81-2.12-0.708-0.316-1.42-0.632-2.14-0.957-1.33-0.599-2.66-1.2-3.99-1.8-3.74-1.69-7.5-3.3-11.3-4.85-0.761-0.31-1.52-0.621-2.3-0.94-1.53-0.623-3.07-1.24-4.6-1.86-1.07-0.433-1.07-0.433-2.16-0.876-0.639-0.257-1.28-0.515-1.94-0.78-1.76-0.806-1.76-0.806-4.76-2.81-1.34-0.499-2.7-0.954-4.06-1.38-6.9-2.23-13.5-4.96-20.1-8-4.95-2.28-9.97-4.32-15-6.32-4.42-1.75-8.79-3.6-13.1-5.5-4.41-1.91-8.77-3.6-13.4-5.04-2.82-0.963-5.53-2.11-8.27-3.28-4.94-2.09-9.89-3.88-15-5.5-8.45-2.76-16.8-5.68-25.1-9.06-4.15-1.69-8.34-2.99-12.6-4.23-3.2-0.993-6.21-2.38-9.29-3.71-6.66-2.39-13.4-4.46-20.2-6.19-2.91-0.851-5.7-1.93-8.53-3.01-4.08-1.46-8.25-2.58-12.4-3.74-6.95-1.95-13.9-3.97-20.7-6.13-4.63-1.41-9.3-2.66-14-3.91-3.03-1.01-5.43-2.28-8.09-4.03l2-2z" fill="#000102"/>
<path transform="translate(1438,132)" d="m0 0c9.74-0.0463 19.5-0.0818 29.2-0.104 4.52-0.0105 9.05-0.0246 13.6-0.0473 4.36-0.0217 8.73-0.0337 13.1-0.0389 1.67-0.0037 3.33-0.0109 5-0.0217 2.33-0.0145 4.66-0.0165 6.99-0.0156 0.694-0.00719 1.39-0.0144 2.1-0.0218 4.78 0.0207 4.78 0.0207 7.01 2.25-0.33 0.33-0.66 0.66-1 1 0.239 1.61 0.482 3.21 0.738 4.82 0.483 4.03 0.526 8.13 0.262 12.2-1 1-1 1-3.04 1.11-0.875-0.00524-1.75-0.0105-2.65-0.0159-0.944-0.00322-1.89-0.00645-2.86-0.00977-0.993-0.00838-1.99-0.0168-3.01-0.0254-0.997-0.00451-1.99-0.00902-3.02-0.0137-2.47-0.0118-4.94-0.0283-7.42-0.0488 0-2.62 0.313-4.51 1-7-0.857 0.133-1.71 0.266-2.6 0.402-17.1 2.64-17.1 2.64-21.6 2.56-4.76-0.0505-9.12 0.232-13.8 1.04-0.99-0.33-1.98-0.66-3-1 0.33-0.99 0.66-1.98 1-3h6c1.22-2.07 1.22-2.07 1-5 0.99-0.33 1.98-0.66 3-1-0.99-0.99-1.98-1.98-3-3 0.33-0.33 0.66-0.66 1-1-2.46-1.23-4.26-1.21-7.01-1.32-0.986-0.0419-1.97-0.0838-2.99-0.127-1.55-0.059-1.55-0.059-3.13-0.119-1.04-0.0432-2.08-0.0864-3.15-0.131-2.57-0.106-5.15-0.208-7.72-0.307v-2z" fill="#7C7B7F"/>
<path transform="translate(1438,134)" d="m0 0c3.58-0.0581 7.17-0.0936 10.8-0.125 1.02-0.0168 2.03-0.0335 3.08-0.0508 0.98-0.00645 1.96-0.0129 2.97-0.0195 0.901-0.0105 1.8-0.0209 2.73-0.0317 2.61 0.24 4.23 0.904 6.47 2.23-0.66 0.66-1.32 1.32-2 2 1.32 0.66 2.64 1.32 4 2-1.32 0.33-2.64 0.66-4 1 0.33 0.99 0.66 1.98 1 3-3 2-3 2-6.12 2.5-0.949 0.165-1.9 0.33-2.88 0.5-0.33 0.66-0.66 1.32-1 2 1.3-0.108 1.3-0.108 2.63-0.219 1.15-0.0928 2.3-0.186 3.49-0.281 1.71-0.139 1.71-0.139 3.45-0.281 3.16-0.201 6.27-0.255 9.43-0.219 3.74 0 7.29-0.52 10.9-1.53 2.35-0.523 4.45-0.567 6.86-0.531 0.799 0.00902 1.6 0.018 2.42 0.0273 0.603 0.0116 1.21 0.0232 1.83 0.0352-0.33 2.31-0.66 4.62-1 7-1.05 0.201-2.1 0.402-3.18 0.609-4.37 1.25-6.49 4.01-9.01 7.64-0.412 0.561-0.824 1.12-1.25 1.7-2.63 3.61-5.11 7.32-7.56 11.1l-2-1v-3c-1.98-0.33-3.96-0.66-6-1-0.103-0.619-0.206-1.24-0.312-1.88-0.563-2.49-0.563-2.49-3.69-4.12-1.12-3-1.12-3-2-6-0.33-0.66-0.66-1.32-1-2 0.33-0.66 0.66-1.32 1-2h-20c-1.52-3.03-1.14-6.18-1.12-9.5-0.00387-0.69-0.00773-1.38-0.0117-2.09 0.0101-5.16 0.0101-5.16 1.14-7.41z" fill="#838385"/>
<path transform="translate(1099,205)" d="m0 0c2.87 1.8 5.45 3.77 8 6 1.45 1.27 1.45 1.27 2.94 2.56 2.19 2.58 2.78 4.1 3.06 7.44h-2c-0.33 0.66-0.66 1.32-1 2 0.33 0.33 0.66 0.66 1 1 1.47 2.36 2.09 3.46 1.62 6.25-0.206 0.577-0.412 1.16-0.625 1.75-8.57 1.43-8.57 1.43-12-1v-3c-0.66-0.206-1.32-0.412-2-0.625-3.45-1.58-6.15-3.62-9.13-5.94-4.61-3.55-8.73-4.26-14.3-5.03-3.65-0.618-5.38-1.25-8.03-3.89-1.51-2.52-1.51-2.52-1.26-4.45 0.247-0.681 0.495-1.36 0.75-2.06 0.0385-2 0.0454-4 0-6-0.66-0.33-1.32-0.66-2-1 11.6-3.87 24.6 0.825 35 6z" fill="#7B7B7E"/>
<path transform="translate(1115,303)" d="m0 0c4.15-0.494 5.72-0.189 9.25 2.19 4.35 4.45 4.35 4.45 4.75 7.81-6.36 12.3-21.5 20.9-34.2 25.3-1.93 0.585-3.87 1.15-5.81 1.69-0.758 0.214-1.52 0.428-2.3 0.648-6.47 1.63-13.1 1.96-19.7 2.35-0.495-1.49-0.495-1.49-1-3 3-3 6.38-2.83 10.5-3.44 2.69-0.359 2.69-0.359 4.53-2.56 1.55-2.66 2-3.85 2-7-0.33-0.66-0.66-1.32-1-2 0.808-0.254 1.62-0.508 2.45-0.77 1.07-0.344 2.14-0.688 3.24-1.04 1.58-0.505 1.58-0.505 3.2-1.02 2.97-1.12 5.42-2.5 8.11-4.17 0.743-0.165 1.48-0.33 2.25-0.5 0.578-0.165 1.15-0.33 1.75-0.5 0.33-0.99 0.66-1.98 1-3 1.32-0.688 2.66-1.35 4-2 1.7-1.63 1.7-1.63 3.19-3.5 0.764-0.913 0.764-0.913 1.54-1.84 1.34-1.64 1.34-1.64 2.27-3.66z" fill="#959697"/>
<path transform="translate(903,271)" d="m0 0c0.619 0.33 1.24 0.66 1.88 1 2.04 1.14 2.04 1.14 4.12 1 0.219 0.522 0.438 1.04 0.664 1.58 1.96 4.55 4.12 8.78 6.65 13 1.9 3.39 3.14 5.65 2.56 9.56-0.289 0.928-0.577 1.86-0.875 2.81-1.32-0.33-2.64-0.66-4-1 0.375 3.75 0.782 6.59 2.56 9.94 1.87 3.99 1.66 6.7 1.44 11.1h-2c-0.309 0.959-0.309 0.959-0.625 1.94-1.38 2.06-1.38 2.06-4.46 2.69-0.962 0.122-1.92 0.245-2.91 0.371l-10.1-20.2c-0.337-0.673-0.673-1.35-1.02-2.04-0.667-1.33-1.33-2.67-2-4-1.56-3.13-3.13-6.25-4.75-9.35-0.558-1.08-1.12-2.16-1.69-3.27-0.496-0.946-0.993-1.89-1.5-2.87-0.308-0.745-0.616-1.49-0.934-2.26 0.33-0.66 0.66-1.32 1-2h3v6c0.701-0.474 1.4-0.949 2.12-1.44 3.04-1.65 5.47-2.17 8.88-2.56-0.33-0.99-0.66-1.98-1-3 0.99-0.66 1.98-1.32 3-2-0.186-0.639-0.371-1.28-0.562-1.94-0.144-0.681-0.289-1.36-0.438-2.06 0.33-0.33 0.66-0.66 1-1z" fill="#7B7B7C"/>
<path transform="translate(775,132)" d="m0 0c12.6-0.0466 25.2-0.082 37.8-0.104 5.85-0.0104 11.7-0.0244 17.6-0.0473 5.66-0.0219 11.3-0.0337 17-0.0389 2.15-0.00366 4.29-0.0108 6.44-0.0217 10.1-0.0494 20.2-2.49e-4 30.3 1.09 0.713 0.0767 1.43 0.153 2.16 0.232 5.95 0.734 11.3 2.42 16.8 4.89-3.92 1.31-5.6 0.344-9.52-0.899-9.07-2.63-17.9-2.71-27.2-2.71-1.75-0.015-3.5-0.0318-5.25-0.0501-4.55-0.0432-9.1-0.0636-13.7-0.0787-4.67-0.0197-9.33-0.0617-14-0.102-9.12-0.0748-18.2-0.125-27.3-0.16 0.247 1.37 0.247 1.37 0.5 2.77 0.595 3.85 0.63 6.49-0.5 10.2-3.44 1.88-3.44 1.88-7 3-0.66 0.33-1.32 0.66-2 1v-2c-1.32 0.33-2.64 0.66-4 1v3c-2.96 0.0538-5.92 0.0936-8.88 0.125-1.26 0.0251-1.26 0.0251-2.55 0.0508-1.21 0.00967-1.21 0.00967-2.44 0.0195-0.744 0.0105-1.49 0.0209-2.25 0.0317-1.88-0.227-1.88-0.227-3.88-2.23-0.199-2.5-0.278-4.87-0.25-7.38-0.00773-0.673-0.0155-1.35-0.0234-2.04 0.0149-3.79 0.453-6.3 2.27-9.59z" fill="#555558"/>
<path transform="translate(1108,260)" d="m0 0c0.33-0.99 0.66-1.98 1-3 0.495 0.99 0.495 0.99 1 2l2 1h-2c-0.33 0.99-0.66 1.98-1 3h-5c-0.495-0.99-0.495-0.99-1-2v3l-4 1v-2c-0.66 0.33-1.32 0.66-2 1-2.88 0.233-5.74 0.42-8.62 0.562-0.802 0.0432-1.6 0.0864-2.43 0.131-1.98 0.106-3.96 0.207-5.95 0.307-0.33 2.31-0.66 4.62-1 7h-40c1.09-5.46 1.69-6.01 6-9-1.65-1.65-3.3-3.3-5-5 7.59-0.154 15.2-0.302 22.8-0.443 3.52-0.0655 7.05-0.133 10.6-0.205 4.06-0.0831 8.11-0.157 12.2-0.231 1.26-0.027 2.52-0.0541 3.82-0.0819 1.18-0.0201 2.36-0.0402 3.58-0.0609 1.55-0.03 1.55-0.03 3.14-0.0606 4.69 0.13 8.02 0.452 12 3.08z" fill="#7C7C7C"/>
<path transform="translate(334,295)" d="m0 0h4c0.33 0.99 0.66 1.98 1 3-6.36 4.16-12.8 8.07-19.5 11.6-2.55 1.38-5.02 2.86-7.51 4.36-1.21 0.711-2.43 1.42-3.64 2.13-9.27 5.41-18.4 11-27.5 16.7-11.7 7.39-11.7 7.39-17.5 10.7-7.76 4.41-15.1 9.31-22.3 14.5-1.39 0.99-1.39 0.99-2.81 2-3.92 2.82-7.79 5.68-11.6 8.65-0.578 0.452-1.16 0.904-1.75 1.37-1.12 0.879-2.24 1.76-3.35 2.65-3.06 2.4-5.89 3.94-9.5 5.32-1.13 2.02-1.13 2.02-2 4-1.49 0.495-1.49 0.495-3 1-0.689 1.32-1.35 2.66-2 4-1.66 1.7-1.66 1.7-3.5 3.25-0.608 0.521-1.22 1.04-1.84 1.58-1.66 1.17-1.66 1.17-3.66 1.17-0.33 1.65-0.66 3.3-1 5l-3 1c-1.23 3.51-1.23 3.51-2 7-1.07-3.31-1.01-3.99 0.25-7.5 14.7-27.3 51.2-46.7 76.8-62.5 1.62-1.01 3.23-2.02 4.85-3.02 1.57-0.972 3.14-1.94 4.71-2.91 0.701-0.436 1.4-0.873 2.12-1.32 3.62-2.22 7.26-4.24 11.1-6.1 6.04-2.97 11.7-6.45 17.5-9.95 8.85-5.35 17.7-10.6 26.8-15.7v-2z" fill="#000001"/>
<path transform="translate(823,321)" d="m0 0c0.99 0.66 1.98 1.32 3 2 2.91 0.369 2.91 0.369 6.2 0.414 1.21 0.0387 2.42 0.0773 3.66 0.117 1.89 0.0464 1.89 0.0464 3.83 0.0938 1.27 0.0387 2.55 0.0773 3.86 0.117 3.15 0.0944 6.3 0.18 9.45 0.258 1.85 3.43 2.25 5.76 2.19 9.69-0.00645 0.973-0.0129 1.95-0.0195 2.95-0.168 2.36-0.168 2.36-1.17 3.36-4.24 0.218-8.48 0.186-12.7 0.185-2.13 0.00218-4.26 0.0203-6.39 0.0393-1.35 0.00293-2.71 0.00492-4.06 0.00586-1.23 0.00411-2.47 0.00822-3.74 0.0125-3.08-0.243-3.08-0.243-6.08-2.24-2.1-3.64-3.33-6.87-4-11-0.33-0.99-0.66-1.98-1-3 3.47-0.495 3.47-0.495 7-1v-2z" fill="#858587"/>
<path transform="translate(802 325)" d="m0 0c1.13 2.11 1.13 2.11 1.13 4.11 0.99 0.33 1.98 0.66 3 1v2c0.557-0.227 1.11-0.454 1.69-0.688 3.3-0.445 4.69 0.754 7.31 2.69 0.66 0.99 1.32 1.98 2 3h-2c-0.33 0.99-0.66 1.98-1 3h-39c-1.14-3.42-1.1-6.09-1.06-9.69 0.00902-1.18 0.018-2.36 0.0273-3.57 0.0116-0.904 0.0232-1.81 0.0352-2.74 4.27-0.283 8.54-0.521 12.8-0.75 1.21-0.0812 2.43-0.162 3.68-0.246 1.16-0.058 2.33-0.116 3.53-0.176 1.07-0.0628 2.15-0.126 3.25-0.19 2.73 0.362 2.73 0.362 4.6 2.25z" fill="#7B7A7E"/>
<path transform="translate(934,321)" d="m0 0v2c0.565 0.0251 1.13 0.0501 1.71 0.0759 2.55 0.116 5.11 0.239 7.66 0.362 0.889 0.0393 1.78 0.0786 2.7 0.119 0.851 0.0419 1.7 0.0838 2.58 0.127 0.786 0.0367 1.57 0.0733 2.38 0.111 1.97 0.205 1.97 0.205 3.97 1.21v15c-3.69 0.108-7.37 0.188-11.1 0.25-1.04 0.0335-2.08 0.067-3.15 0.102-6.5 0.0825-10.6-0.32-15.8-4.35-2.81-4.04-3.58-9.17-3-14 3.6-3.6 7.8-3.75 12-1z" fill="#959697"/>
<path transform="translate(909,175)" d="m0 0c0.887 0.165 1.77 0.33 2.69 0.5 2.85 0.43 5.44 0.584 8.31 0.5 0.309 1.09 0.619 2.19 0.938 3.31 1.08 2.62 1.71 3.5 4.27 4.82 2.25 0.73 4.48 1.36 6.8 1.87-0.495 0.701-0.99 1.4-1.5 2.12-1.69 3.25-1.75 5.27-1.5 8.88 0.99-0.33 1.98-0.66 3-1 0.66 0.33 1.32 0.66 2 1v-4h2c-0.33-5.28-0.66-10.6-1-16 2.38 4.77 3.13 7.96 3.13 13.2 0.00193 1.5 0.00193 1.5 0.00391 3.04-0.00387 1.04-0.00773 2.08-0.0117 3.15 0.0058 1.56 0.0058 1.56 0.0117 3.14-0.00129 1-0.00258 2.01-0.00391 3.04-0.00113 0.912-0.00226 1.82-0.00342 2.76-0.13 2.63-0.547 5.05-1.13 7.62-0.846-0.763-1.69-1.53-2.56-2.31-3.2-2.7-6.59-4.05-10.4-5.69-2.44-2.19-2.44-2.19-4-4-0.33 0.66-0.66 1.32-1 2-2.09-3-2.99-4.95-3.5-8.62-0.143-3.31-0.143-3.31-1.93-4.77-2.02-2.05-2.49-3.85-3.26-6.6-0.251-0.866-0.503-1.73-0.762-2.62-0.551-2.38-0.551-2.38-0.551-5.38z" fill="#838385"/>
<path transform="translate(800,311)" d="m0 0h1v10c2.17-0.0619 2.17-0.0619 4.38-0.125 2.46-0.0703 2.46-0.0703 4.62 0.125 0.66 0.66 1.32 1.32 2 2 0.887-0.804 1.77-1.61 2.69-2.44 2.7-2.24 4.69-3.46 8.31-3.56 0.99 0.66 1.98 1.32 3 2 3 0.369 3 0.369 6.42 0.414 1.25 0.0387 2.51 0.0773 3.8 0.117 1.31 0.0309 2.62 0.0619 3.97 0.0938 1.34 0.0382 2.67 0.0772 4.01 0.117 3.27 0.0944 6.54 0.18 9.81 0.258 0.495 2.48 0.495 2.48 1 5-4.09-0.0935-8.19-0.2-12.3-0.317-1.39-0.0383-2.79-0.0732-4.18-0.104-2-0.0456-4-0.105-6-0.164-1.2-0.0314-2.41-0.0628-3.65-0.0952-2.89-0.319-2.89-0.319-4.89-2.32-2.31 0.99-4.62 1.98-7 3 0.433 1.08 0.433 1.08 0.875 2.19 0.371 0.928 0.742 1.86 1.12 2.81 0.371 0.866 0.742 1.73 1.12 2.62 0.875 2.38 0.875 2.38 0.875 5.38 1.32 0.33 2.64 0.66 4 1-1 1-1 1-3.29 1.1-0.917-0.0116-1.83-0.0232-2.78-0.0352-0.919-0.00902-1.84-0.018-2.79-0.0273-0.71-0.0116-1.42-0.0232-2.15-0.0352 0.66-1.32 1.32-2.64 2-4-1.08-1.58-1.08-1.58-3-3-1.15-0.165-2.31-0.33-3.5-0.5-3.5-0.5-3.5-0.5-5.44-1.94-1.06-1.56-1.06-1.56-1.06-3.56l-2-1c-0.33-0.66-0.66-1.32-1-2h-26c0.33-1.32 0.66-2.64 1-4 7.92-0.33 15.8-0.66 24-1 0.33-2.64 0.66-5.28 1-8z" fill="#7C7B7C"/>
<path transform="translate(1418,207)" d="m0 0c0 2.62-0.313 4.51-1 7 0.784-0.0619 1.57-0.124 2.38-0.188 1.3 0.0928 1.3 0.0928 2.62 0.188 0.99 1.49 0.99 1.49 2 3 3.07 0.733 3.07 0.733 6 1 0.247-0.639 0.495-1.28 0.75-1.94 1.25-2.06 1.25-2.06 3.38-2.81 0.619-0.0825 1.24-0.165 1.88-0.25 0.475 4.09 0.154 5.76-2.08 9.29-0.896 1.12-1.81 2.24-2.73 3.34-0.452 0.559-0.904 1.12-1.37 1.7-1.27 1.57-2.54 3.12-3.82 4.68-1.01 1.33-2.01 2.66-3 4-0.66-0.99-1.32-1.98-2-3-2.23-1.41-2.23-1.41-4.81-2.62-0.852-0.425-1.7-0.851-2.58-1.29-2.55-1.06-4.89-1.65-7.61-2.09 0.33 0.33 0.66 0.66 1 1v1c-5.46 0.364-5.46 0.364-7.75-1.19-2.06-2.99-3.47-5.44-2.88-9.12 0.206-0.557 0.412-1.11 0.625-1.69h3c0.66-1.32 1.32-2.64 2-4 1.98 2.31 3.96 4.62 6 7 3.45-4.25 6.73-8.61 10-13z" fill="#7A7A7C"/>
<path transform="translate(1368 141)" d="m0 0c1.6 0.00677 1.6 0.00677 3.23 0.0137 2.61 0.0117 5.22 0.0281 7.83 0.0488v5c-2.67 1.33-4.17 0.671-7 0-0.227 0.784-0.454 1.57-0.688 2.38-1.31 2.62-1.31 2.62-3.56 3.94-3.02 0.754-5.65 0.832-8.75 0.688 0.474 0.784 0.949 1.57 1.44 2.38 0.901 1.51 1.77 3.05 2.56 4.62-5.66-1.48-5.66-1.48-7.38-4.12-0.206-0.619-0.412-1.24-0.625-1.88h-2v-3c-0.66 0.66-1.32 1.32-2 2 0.205 2.49 0.205 2.49 0.875 5.25 0.821 4 1.35 7.64 1.12 11.8-0.289-0.639-0.578-1.28-0.875-1.94-0.953-2.21-0.953-2.21-3.12-3.06 0.33-0.66 0.66-1.32 1-2-0.99 0.33-1.98 0.66-3 1-0.99-0.99-1.98-1.98-3-3-0.33 0.66-0.66 1.32-1 2-2.12 0.438-2.12 0.438-5 0-2.33-2.08-4.28-4.39-6-7v-2c0.969-0.289 1.94-0.577 2.94-0.875 3.17-0.767 3.17-0.767 4.06-3.12 3.46 1.49 3.46 1.49 7 3-0.99 0.33-1.98 0.66-3 1 1.98 0.66 3.96 1.32 6 2-1.07-2.92-1.78-4.78-4-7h9v-2h4c-0.33-0.66-0.66-1.32-1-2h-3-2c0.33 0.99 0.66 1.98 1 3h-2v-2l-2.25 0.562c-2.7 0.43-4.2 0.289-6.75-0.562v-2c3.46-0.495 3.46-0.495 7-1v-1c6.33-1.14 12.5-1.11 18.9-1.06z" fill="#767678"/>
<path transform="translate(825,238)" d="m0 0c4.27 0.0598 8.54 0.147 12.8 0.25 1.82 0.0213 1.82 0.0213 3.68 0.043 1.16 0.0322 2.33 0.0645 3.53 0.0977 1.07 0.0209 2.15 0.0419 3.25 0.0635 2.73 0.546 2.73 0.546 4.6 2.58 0.372 0.647 0.743 1.29 1.13 1.96-3 1-3 1-6 1v2c0.66-0.33 1.32-0.66 2-1v6h-2v3h3v2h-26c-0.33 0.99-0.66 1.98-1 3-1-1-1-1-1.1-2.85 0.0326-2.05 0.0651-4.1 0.0977-6.15h2v-12z" fill="#7C7B7F"/>
<path transform="translate(1438,132)" d="m0 0c9.74-0.0463 19.5-0.0818 29.2-0.104 4.52-0.0105 9.05-0.0246 13.6-0.0473 4.36-0.0217 8.73-0.0337 13.1-0.0389 1.67-0.0037 3.33-0.0109 5-0.0217 2.33-0.0145 4.66-0.0165 6.99-0.0156 0.694-0.00719 1.39-0.0144 2.1-0.0218 4.78 0.0207 4.78 0.0207 7.01 2.25-13.5 0.33-27.1 0.66-41 1 2.47 0.495 2.47 0.495 5 1v1c-1.98 0.33-3.96 0.66-6 1v2 1c0.66-0.33 1.32-0.66 2-1 2.33-0.0402 4.67-0.0432 7 0 0.495 2.47 0.495 2.47 1 5h5c0.33-1.98 0.66-3.96 1-6h1c0.495 3.47 0.495 3.47 1 7-1.89 0.507-3.79 1.01-5.69 1.5-1.06 0.278-2.11 0.557-3.2 0.844-2.84 0.598-5.23 0.777-8.11 0.656h-2c-0.717-0.0116-1.43-0.0232-2.17-0.0352-4.76-0.0505-9.12 0.232-13.8 1.04-0.99-0.33-1.98-0.66-3-1 0.33-0.99 0.66-1.98 1-3h6c1.22-2.07 1.22-2.07 1-5 0.99-0.33 1.98-0.66 3-1-0.99-0.99-1.98-1.98-3-3 0.33-0.33 0.66-0.66 1-1-2.46-1.23-4.26-1.21-7.01-1.32-0.986-0.0419-1.97-0.0838-2.99-0.127-1.55-0.059-1.55-0.059-3.13-0.119-1.04-0.0432-2.08-0.0864-3.15-0.131-2.57-0.106-5.15-0.208-7.72-0.307v-2z" fill="#4F4F50"/>
<path transform="translate(1470,302)" d="m0 0c3.1 2.89 5.26 5.81 7.44 9.44 4.22 6.84 4.22 6.84 10.6 11.6v2l4 1c-2.31 0.66-4.62 1.32-7 2-0.33 1.65-0.66 3.3-1 5-7.43 1.29-7.43 1.29-11 0v-2c-1.13 0.186-2.27 0.371-3.44 0.562-1.76 0.217-1.76 0.217-3.56 0.438-0.33-0.33-0.66-0.66-1-1 0.119-2.41 0.286-4.79 0.5-7.19 0.339-3.93 0.592-7.29-0.0938-11.2-0.134-0.87-0.268-1.74-0.406-2.64 0.66-0.66 1.32-1.32 2-2 0.66 0.33 1.32 0.66 2 1 0.33-2.31 0.66-4.62 1-7z" fill="#848486"/>
<path transform="translate(997,246)" d="m0 0h3v3c0.773-0.278 0.773-0.278 1.56-0.562 3.3-0.592 6.16-0.00477 9.44 0.562 0.33 1.32 0.66 2.64 1 4 0.33-0.99 0.66-1.98 1-3 0.413 0.804 0.825 1.61 1.25 2.44 1.48 2.7 1.48 2.7 3.94 3.38 0.598 0.0619 1.2 0.124 1.81 0.188v2c1.32 0.33 2.64 0.66 4 1-4.81 3.82-10.1 3.7-16 4v3h-3c-0.33 0.66-0.66 1.32-1 2l-2-1c-0.33 0.66-0.66 1.32-1 2-0.66-0.99-1.32-1.98-2-3-0.049 1.19-0.098 2.38-0.148 3.61-0.075 1.57-0.151 3.13-0.227 4.7-0.0309 0.786-0.0619 1.57-0.0938 2.38-0.0387 0.757-0.0773 1.51-0.117 2.29-0.0314 0.696-0.0628 1.39-0.0952 2.11-0.319 1.9-0.319 1.9-2.32 4.9-2.43-4.74-2.34-9.18-2.31-14.4 0.00129-0.878 0.00258-1.76 0.00391-2.66 0.115-7.93 1.35-15.3 3.31-23z" fill="#838385"/>
<path transform="translate(1329,328)" d="m0 0c1.26 3.45 0.923 5.54 0 9 0.33 0.99 0.66 1.98 1 3-4.12 0.0868-8.25 0.14-12.4 0.188-1.18 0.0251-2.35 0.0503-3.56 0.0762-1.12 0.00967-2.24 0.0193-3.4 0.0293-1.04 0.0157-2.07 0.0314-3.14 0.0476-0.832-0.112-1.66-0.225-2.52-0.341-2.25-3.38-2.25-4.61-2.19-8.56 0.00645-0.971 0.0129-1.94 0.0195-2.94 0.168-2.5 0.168-2.5 1.17-4.5 3.04-0.304 6.08-0.569 9.12-0.812 0.856-0.0896 1.71-0.179 2.59-0.271 6.3-0.46 8.98 0.379 13.3 5.08z" fill="#838385"/>
<path transform="translate(1179 253)" d="m0 0c0.891-0.00336 1.78-0.00672 2.7-0.0102 2.95-0.00951 5.9-0.0115 8.85-0.0125 2.05-0.00321 4.1-0.00658 6.15-0.0101 4.3-0.00599 8.59-0.00784 12.9-0.00725 5.51 1.02e-4 11-0.0136 16.5-0.0308 4.23-0.0111 8.46-0.0131 12.7-0.0126 2.03-0.00118 4.06-0.00561 6.09-0.0133 2.84-0.00978 5.68-0.00693 8.52-8.95e-4 0.841-0.00562 1.68-0.0112 2.55-0.017 7.04 0.0381 7.04 0.0381 10.3 2.26v3h-99v-4c3.92-1.31 7.64-1.15 11.7-1.15z" fill="#000102"/>
<path transform="translate(1024,295)" d="m0 0c1.74 2.26 3.34 4.53 4.88 6.94 6.7 9.65 17.1 16.7 28.5 19.7 16.5 2.34 31.4-0.981 45.7-9.62 5.38-4.13 9.85-8.64 14-14 2.88 1.34 5.25 2.84 7.69 4.88 0.602 0.492 1.2 0.985 1.82 1.49 1.69 1.86 2.09 3.18 2.49 5.63-5.75-3.75-5.75-3.75-8-6-1.99-0.398-3.99-0.738-6-1-0.278 1.05-0.278 1.05-0.562 2.12-2 4-4.97 6.14-8.44 8.88-0.846 0.722-1.69 1.44-2.56 2.19-12.5 9.33-28.2 11.9-43.4 10.8-3.23-0.619-6.02-1.63-9-3-1.19-0.51-1.19-0.51-2.41-1.03-6.5-2.98-12.5-6.85-17.6-12-0.358-1.33-0.697-2.66-1-4-0.99-0.33-1.98-0.66-3-1-1.2-1.74-1.2-1.74-2.25-3.88-0.356-0.699-0.712-1.4-1.08-2.12-0.672-2.01-0.672-2.01 0.328-5.01z" fill="#000102"/>
<path transform="translate(1192,261)" d="m0 0c8.29 0.679 8.29 0.679 12 3-3.75 1.12-3.75 1.12-6 0v2c0.804-0.0206 1.61-0.0412 2.44-0.0625 2.56 0.0625 2.56 0.0625 3.56 1.06 1.4 0.0206 2.79-0.00876 4.19-0.0625 3.99-0.0445 7.13 0.403 10.8 2.06 0.495 0.99 0.495 0.99 1 2 1.69 2.1 2.6 2.91 5.26 3.51 0.801 0.058 1.6 0.116 2.43 0.176 0.808 0.0657 1.62 0.131 2.45 0.199 0.615 0.0374 1.23 0.0748 1.86 0.113v1c-7.61 0.154-15.2 0.302-22.8 0.443-3.53 0.0655-7.06 0.133-10.6 0.205-4.06 0.0829-8.13 0.157-12.2 0.231-1.26 0.027-2.53 0.0541-3.83 0.0819-1.18 0.0201-2.36 0.0402-3.58 0.0609-1.04 0.02-2.07 0.04-3.14 0.0606-2.73-0.0792-5.18-0.459-7.84-1.08 1.07-1.52 1.07-1.52 3-3 3.18-0.0391 3.18-0.0391 6.88 0.375 4.33 0.469 7.89 0.736 12.1-0.375v-4c-0.99-0.33-1.98-0.66-3-1v-2h5c-0.186-0.639-0.371-1.28-0.562-1.94-0.144-0.681-0.289-1.36-0.438-2.06 0.33-0.33 0.66-0.66 1-1z" fill="#848486"/>
<path transform="translate(806,134)" d="m0 0c2.63-0.0538 5.25-0.0936 7.88-0.125 0.746-0.0168 1.49-0.0335 2.26-0.0508 1.96-0.0176 3.91 0.0726 5.86 0.176 0.66 0.66 1.32 1.32 2 2-1.88 5.75-1.88 5.75-3 8 1.09 0.0825 2.19 0.165 3.31 0.25 3.69 0.75 3.69 0.75 5.56 2.56 1.07 2.08 1.71 3.89 2.12 6.19h-7c-0.33 9.9-0.66 19.8-1 30h-1c-0.708-7.36-1.15-14.6-1-22-3.47-1.98-3.47-1.98-7-4v-2c-1.32-0.33-2.64-0.66-4-1 0.0232-0.88 0.0464-1.76 0.0703-2.67 0.018-1.16 0.0361-2.32 0.0547-3.52 0.0232-1.15 0.0464-2.3 0.0703-3.48-0.19-3.25-0.802-5.42-2.2-8.33-0.99 0.33-1.98 0.66-3 1v-3z" fill="#848486"/>
<path transform="translate(356,203)" d="m0 0h2c0.33 0.99 0.66 1.98 1 3-6.23 4.5-12.8 7.99-19.7 11.3-3.3 1.7-6.27 3.62-9.33 5.71-3.43 2.1-6.9 4.11-10.4 6.12-4.11 2.39-8.2 4.82-12.3 7.28-10.5 6.33-20.5 12.3-32.4 15.6-2 0.654-4 1.32-6 2-2.14 0.714-4.28 1.43-6.42 2.14-1.92 0.642-3.84 1.29-5.76 1.95-1.08 0.365-2.15 0.73-3.26 1.11-1.01 0.344-2.02 0.688-3.06 1.04-2.5 0.77-2.5 0.77-4.5 0.77v2c-0.941 0.401-1.88 0.802-2.85 1.21-7.94 3.56-13.2 6.59-17.1 14.8-0.33-0.99-0.66-1.98-1-3 6.75-12.9 21.3-18.9 34.5-23.2 4.48-1.4 8.98-2.74 13.5-4.06 2-0.587 4-1.17 6-1.76 0.794-0.227 1.59-0.454 2.41-0.687 6.29-1.92 11.7-4.96 17.4-8.25 1-0.574 2-1.15 3.04-1.74 7.33-4.22 14.6-8.55 21.8-12.9 5.86-3.54 11.8-7.03 17.7-10.5 0.779-0.453 1.56-0.907 2.36-1.37 4.03-2.33 8.07-4.54 12.3-6.56v-2z" fill="#000101"/>
<path transform="translate(1430,245)" d="m0 0c3.47 3.35 6.52 6.79 9.44 10.6 0.421 0.553 0.842 1.11 1.28 1.68 5.57 7.34 11 14.8 16.5 22.2 1.8 2.45 3.6 4.89 5.41 7.32 6.35 8.58 12.6 17.2 18.7 26 2.34 3.64 2.34 3.64 5.73 6.17 1.96 0.154 3.92 0.25 5.88 0.316 1.17 0.0419 2.33 0.0838 3.54 0.127 1.22 0.0393 2.45 0.0786 3.71 0.119 1.23 0.0432 2.46 0.0864 3.73 0.131 3.05 0.106 6.1 0.208 9.14 0.307v10h-1v-6c-1.04 0.0314-1.04 0.0314-2.11 0.0635-3.17 0.0835-6.34 0.135-9.52 0.187-1.09 0.0335-2.19 0.067-3.32 0.102-10.4 0.126-10.4 0.126-15.1-4.35-1.72-2.19-3.16-4.48-4.56-6.88-2.85-4.74-5.85-8.92-9.44-13.1-1.29-1.73-2.57-3.48-3.81-5.25-0.605-0.851-1.21-1.7-1.83-2.58-1.36-2.17-1.36-2.17-1.36-4.17h-2c-1.03-1.65-2.02-3.32-3-5-1.77-2.38-3.64-4.69-5.5-7-5.12-6.36-5.12-6.36-7.16-9.81-1.3-2.46-1.3-2.46-4.34-4.19-1.03-1.77-2.05-3.54-3.03-5.34-0.931-1.75-0.931-1.75-2.54-3.23-2.14-2.14-3.17-4.72-4.44-7.44 0.33-0.33 0.66-0.66 1-1z" fill="#000102"/>
<path transform="translate(1108,260)" d="m0 0c0.33-0.99 0.66-1.98 1-3 0.495 0.99 0.495 0.99 1 2 0.66 0.33 1.32 0.66 2 1h-2c-0.33 0.99-0.66 1.98-1 3h-5c-0.495-0.99-0.495-0.99-1-2v3l-4 1v-2c-0.66 0.33-1.32 0.66-2 1-3.01 0.357-6.04 0.467-9.06 0.625-0.841 0.0516-1.68 0.103-2.55 0.156-2.13 0.117-4.26 0.173-6.39 0.219-0.33-0.33-0.66-0.66-1-1-0.66 1.32-1.32 2.64-2 4-0.33-0.66-0.66-1.32-1-2-0.33 0.66-0.66 1.32-1 2-0.578-0.206-1.15-0.413-1.75-0.625-2.29-0.615-2.29-0.615-4.25 0.688-2 0.938-2 0.938-4.19 0.375-1.81-1.44-1.81-1.44-2.69-3.94-0.0412-0.825-0.0825-1.65-0.125-2.5 0.66-0.66 1.32-1.32 2-2-0.66-0.66-1.32-1.32-2-2 5.3-0.168 10.6-0.329 15.9-0.482 1.8-0.0532 3.6-0.109 5.41-0.166 2.6-0.0824 5.19-0.157 7.79-0.231 1.2-0.0406 1.2-0.0406 2.42-0.0819 10.6-0.28 10.6-0.28 15.5 2.96z" fill="#7C7B7E"/>
<path transform="translate(1020,253)" d="m0 0c27.7 0.33 55.4 0.66 84 1v3c-3.97 0.94-7.67 1.13-11.7 1.13-0.986 0.00263-0.986 0.00263-1.99 0.00531-2.16 0.00438-4.33 0.00149-6.49-0.00189-1.52 6.74e-4 -3.03 0.00165-4.55 0.0029-3.18 0.00147-6.35-6.63e-4 -9.53-0.00534-4.05-0.00567-8.09-0.00243-12.1 0.00357-3.13 0.00364-6.26 0.00245-9.4-1.28e-4 -1.49-6.62e-4 -2.98 1.32e-4 -4.47 0.00248-7.94 0.00976-15.8-0.0994-23.7-1.14v-4z" fill="#000101"/>
<path transform="translate(1085,327)" d="m0 0c-0.309 0.763-0.619 1.53-0.938 2.31-0.741 1.88-1.42 3.77-2.06 5.69-3.15 2.1-5.01 2.52-8.69 3.12-0.994 0.168-1.99 0.335-3.01 0.508-0.759 0.121-1.52 0.242-2.3 0.367-0.33 1.32-0.66 2.64-1 4-3.96-0.33-7.92-0.66-12-1 0.33-1.65 0.66-3.3 1-5 1.65-0.33 3.3-0.66 5-1-0.987-2.2-1.85-3.85-3.56-5.56-1.44-1.44-1.44-1.44-2.44-4.44 0.58 0.00524 1.16 0.0105 1.76 0.0159 2.64 0.0209 5.29 0.0338 7.93 0.0466 1.37 0.0126 1.37 0.0126 2.76 0.0254 1.33 0.00483 1.33 0.00483 2.69 0.00977 0.812 0.00524 1.62 0.0105 2.46 0.0159 2.46-0.0504 2.46-0.0504 5.03-0.678 3.02-0.554 4.66 0.245 7.37 1.56z" fill="#848486"/>
<path transform="translate(107 71.4)" d="m0 0c1.4 0.599 1.4 0.599 2.84 1.21 7.48 3.27 7.48 3.27 10.3 6.41l-2 2c-2.73-0.0329-5.3-0.564-8-1v2c-7.18 2.31-7.18 2.31-10.9 0.875-2.2-2-2.76-2.97-3.06-5.88h-3v-2h-2c-0.33 0.66-0.66 1.32-1 2-0.33-0.99-0.66-1.98-1-3 0.33-0.66 0.66-1.32 1-2-4.95 1.48-4.95 1.48-10 3 0-4 0-4 1.21-5.52 0.568-0.427 1.14-0.853 1.72-1.29 0.545-0.44 1.09-0.879 1.65-1.33 7.52-2.67 15.5 1.48 22.3 4.52z" fill="#EC0088"/>
<path transform="translate(1438,134)" d="m0 0c3.58-0.0581 7.17-0.0936 10.8-0.125 1.02-0.0168 2.03-0.0335 3.08-0.0508 0.98-0.00645 1.96-0.0129 2.97-0.0195 0.901-0.0105 1.8-0.0209 2.73-0.0317 2.61 0.24 4.23 0.904 6.47 2.23-0.66 0.66-1.32 1.32-2 2 1.32 0.66 2.64 1.32 4 2-1.32 0.33-2.64 0.66-4 1 0.33 0.99 0.66 1.98 1 3-4.05 2.7-7.67 2.8-12.4 3.31-0.859 0.112-1.72 0.223-2.6 0.338-6.23 0.681-6.23 0.681-9.54-0.822-1.79-2.3-1.87-3.5-1.73-6.39 0.0245-0.785 0.049-1.57 0.0742-2.38 0.238-2.06 0.238-2.06 1.24-4.06z" fill="#7C7B7F"/>
<path transform="translate(800,227)" d="m0 0c0.99 0.33 1.98 0.66 3 1v10h2c0.133 0.843 0.266 1.69 0.402 2.55 0.177 1.1 0.353 2.19 0.535 3.32 0.174 1.09 0.348 2.18 0.527 3.3 0.391 2.76 0.391 2.76 1.54 4.82 0.0718 2.72 0.093 5.41 0.0625 8.12-0.00451 0.754-0.00902 1.51-0.0137 2.29-0.0118 1.86-0.0297 3.73-0.0488 5.59h-2c-0.66-0.99-1.32-1.98-2-3 0.33 0.99 0.66 1.98 1 3h-2c-0.933 4.1-1.29 8.12-1.56 12.3-0.0838 1.25-0.168 2.51-0.254 3.8-0.0606 0.953-0.121 1.91-0.184 2.89h-1c-0.789-10.6-1.16-21.1-1.13-31.7 0.00543-2.29-2.27e-5 -4.59-0.00635-6.88-0.00292-7.21 0.111-14.3 1.14-21.5z" fill="#7B7B7E"/>
<path transform="translate(1386,246)" d="m0 0c0.495 0.99 0.495 0.99 1 2-0.531 0.724-1.06 1.45-1.61 2.2-4.53 6.15-4.53 6.15-8.77 12.5-0.536 0.763-1.07 1.53-1.62 2.31h-2c-0.371 1.08-0.371 1.08-0.75 2.19-1.39 3.13-3.08 5.15-5.25 7.81-2.2 2.82-4.38 5.66-6.56 8.5-0.577 0.746-1.15 1.49-1.75 2.26-2.8 3.65-5.33 7.28-7.69 11.2-0.974 1.03-1.97 2.03-3 3-1.06 1.27-2.1 2.57-3.12 3.88-0.614 0.782-1.23 1.56-1.86 2.37-1.49 2.03-2.84 4.03-4.16 6.16-0.371 0.583-0.742 1.17-1.12 1.77-1.06 1.69-2.1 3.39-3.13 5.1-4.09 4.28-8.37 4.54-14.1 4.86-2.52 0.0538-5.03 0.0345-7.56-0.0164-0.866-0.00902-1.73-0.018-2.62-0.0273-2.1-0.0233-4.21-0.0591-6.31-0.0977 0.33-1.32 0.66-2.64 1-4 0.96-0.0297 0.96-0.0297 1.94-0.0601 2.92-0.0956 5.83-0.205 8.75-0.315 1.01-0.0309 2.01-0.0619 3.05-0.0938 0.976-0.0387 1.95-0.0773 2.96-0.117 0.895-0.0314 1.79-0.0628 2.71-0.0952 3.99-0.491 6.76-1.41 9.48-4.4 0.633-0.901 1.27-1.8 1.92-2.73 0.78-1.09 1.56-2.17 2.34-3.25 0.441-0.615 0.882-1.23 1.34-1.86 3.03-4.16 6.19-8.23 9.32-12.3 7.61-9.97 15.2-20 22.6-30.1 4.73-6.34 9.56-12.6 14.5-18.7z" fill="#000101"/>
<path transform="translate(444,225)" d="m0 0c0 3 0 3-1.46 4.82-0.947 0.922-0.947 0.922-1.91 1.86-0.626 0.623-1.25 1.25-1.9 1.89-1.73 1.43-1.73 1.43-3.73 1.43-0.33 0.99-0.66 1.98-1 3-1.33 0.333-2.67 0.667-4 1-0.33 0.99-0.66 1.98-1 3-1.63 1.44-1.63 1.44-3.71 2.92-0.75 0.532-1.5 1.06-2.27 1.61-0.789 0.547-1.58 1.09-2.39 1.66-0.781 0.559-1.56 1.12-2.37 1.69-5.87 4.12-5.87 4.12-9.26 4.12-0.495 1.49-0.495 1.49-1 3-5.22 3-5.22 3-8 3-0.33 0.99-0.66 1.98-1 3-6.93 3.14-13.2 2.05-20.4 0.508-3.42-0.664-6.83-0.982-10.3-1.3-5.29-0.482-10.4-1.01-15.3-3.21-0.664-2.07-0.664-2.07-1-4 1.08 0.298 2.15 0.596 3.26 0.902 5.48 1.37 11 2 16.6 2.66 1.02 0.126 2.05 0.251 3.11 0.381 2.03 0.247 4.07 0.483 6.1 0.709 1.89 0.225 3.78 0.489 5.66 0.8 5.03 0.753 8.11 0.841 12.5-2.21 0.537-0.411 1.07-0.821 1.63-1.24 1.2-0.848 2.41-1.69 3.61-2.54 0.59-0.422 1.18-0.843 1.79-1.28 2.5-1.72 5.13-3.16 7.79-4.62 11-6.32 21-14.6 29.9-23.6z" fill="#000001"/>
<path transform="translate(1362,161)" d="m0 0c0.99 0.33 1.98 0.66 3 1v2c1.13 1.16 2.26 2.32 3.43 3.44 11 10.9 11 10.9 12.1 15.7 0.247 0.897 0.247 0.897 0.5 1.81 0.99 0.33 1.98 0.66 3 1 2.04 2.5 2.04 2.5 4.19 5.56 0.715 1.01 1.43 2.02 2.17 3.07 0.543 0.782 1.09 1.56 1.64 2.37-0.33 0.66-0.66 1.32-1 2-0.99-1.32-1.98-2.64-3-4-0.897 0.495-0.897 0.495-1.81 1-2.19 1-2.19 1-5.19 1v-3c-1.48-0.495-1.48-0.495-3-1-0.33-2.31-0.66-4.62-1-7-2.49-0.687-4.38-1-7-1v-5c-0.99-0.33-1.98-0.66-3-1-3.39-2.48-3.34-5.02-4-9-1.44-1.86-1.44-1.86-3-3 0.66-1.98 1.32-3.96 2-6zm22 29c0.66 0.66 1.32 1.32 2 2v-2h-2z" fill="#69696A"/>
<path transform="translate(468,181)" d="m0 0c3.23 0.272 6.46 0.415 9.7 0.555 1.43 0.0631 1.43 0.0631 2.9 0.127 10.9 0.437 21.8 0.469 32.8 0.448 3.46-0.00539 6.91 2.61e-6 10.4 0.00635 11 0.00173 22-0.135 33-1.07 4.6-0.0871 7.8 0.916 11.3 3.94 1.89 1.92 3.41 3.81 5 6-0.33 0.66-0.66 1.32-1 2-0.495-1.49-0.495-1.49-1-3-1.8-1.07-1.8-1.07-4-2-0.68-0.509-1.36-1.02-2.06-1.54-4.12-2.04-7.68-1.85-12.2-1.78-1.39 0.00175-1.39 0.00175-2.81 0.00354-3.06 0.00718-6.12 0.0354-9.18 0.0634-2.13 0.00814-4.26 0.0148-6.39 0.0201-5.61 0.0171-11.2 0.0514-16.8 0.0901-8.97 0.0592-17.9 0.0931-26.9 0.126-3.13 0.0139-6.26 0.0355-9.4 0.0583-1.92 0.01-3.85 0.0199-5.77 0.0296-1.3 0.0125-1.3 0.0125-2.63 0.0252-4.38 0.016-8.47-0.204-12.8-1.09v-3c2.89-1.44 4.81-0.547 8 0z" fill="#000002"/>
<path transform="translate(1016,275)" d="m0 0c2.55 4.28 3.72 8.02 4 13-0.969 2.76-1.92 3.92-4 6-0.707 1.65-1.38 3.32-2 5-5.88-1.88-5.88-1.88-7-3-0.265-2.61-0.469-5.2-0.625-7.81-0.0516-0.725-0.103-1.45-0.156-2.2-0.218-3.51-0.396-6.64 0.781-9.99 6.75-2.12 6.75-2.12 9-1z" fill="#787779"/>
<path transform="translate(1503,134)" d="m0 0h10c2.58 5.8 2.42 11.8 2 18-1 1-1 1-2.86 1.11-0.791-0.00524-1.58-0.0105-2.4-0.0159-0.854-0.00322-1.71-0.00645-2.59-0.00977-0.898-0.00838-1.8-0.0168-2.72-0.0254-0.902-0.00451-1.8-0.00902-2.73-0.0137-2.24-0.0118-4.47-0.0283-6.71-0.0488 0.33-0.66 0.66-1.32 1-2h-1v-5h9c0.33-3.63 0.66-7.26 1-11-0.66-0.33-1.32-0.66-2-1z" fill="#858587"/>
<path transform="translate(1093,214)" d="m0 0c6.56 0.619 6.56 0.619 8.81 2.56 0.392 0.474 0.784 0.949 1.19 1.44h2v2h2c0.66 1.32 1.32 2.64 2 4h3c0.33 2.31 0.66 4.62 1 7-4.33 2.23-7.28 1.92-12 1-0.0619-0.619-0.124-1.24-0.188-1.88-0.402-1.05-0.402-1.05-0.812-2.12-1.11-0.433-1.11-0.433-2.25-0.875-3.94-1.61-5.35-3.6-7.75-7.12 0.188-2.38 0.188-2.38 1-4h2v-2z" fill="#787779"/>
<path transform="translate(1066 196)" d="m0 0c1.75-0.028 1.75-0.028 3.54-0.0566 16 0.117 29.8 5.6 41 16.9 1.79 1.86 3.56 3.73 5.31 5.62-0.33 0.66-0.66 1.32-1 2-0.69-0.736-1.38-1.47-2.09-2.23-11-11.5-23.7-18.5-40-19-22.9-0.311-40.5 3.49-57.9 19.2-0.66-0.33-1.32-0.66-2-1 15.5-15.4 31.4-21.3 53.1-21.5z" fill="#000102"/>
<path transform="translate(908,217)" d="m0 0 1 2c-5.85 9.16-14.5 15.8-25.1 18.5-4.23 0.675-8.45 0.847-12.7 1.03-1.46 0.0637-1.46 0.0637-2.96 0.129-14.1 0.54-28.2 0.396-42.2 0.309-0.66-1.32-1.32-2.64-2-4 0.615 0.166 1.23 0.332 1.86 0.503 4.45 0.705 8.8 0.545 13.3 0.446 1.48-0.0283 1.48-0.0283 2.99-0.0572 2.09-0.0418 4.18-0.0865 6.27-0.134 3.17-0.0698 6.33-0.124 9.5-0.178 2.04-0.0427 4.08-0.0863 6.11-0.131 0.934-0.0147 1.87-0.0294 2.83-0.0445 12.5-0.319 24.1-2.55 34.1-10.4 2.44-2.58 4.75-5.25 7-8z" fill="#000101"/>
<path transform="translate(1401,213)" d="m0 0c1.08 1.11 1.08 1.11 2.19 2.25 5.27 5.16 8.66 7.25 15.8 8.75 0.99 0.33 1.98 0.66 3 1 0.33 1.65 0.66 3.3 1 5h2c-0.33 1.98-0.66 3.96-1 6-0.592-0.661-0.592-0.661-1.2-1.34-2.09-1.92-4.14-3.03-6.68-4.29-0.843-0.425-1.69-0.851-2.55-1.29-2.53-1.07-4.86-1.65-7.57-2.09 0.33 0.33 0.66 0.66 1 1v1c-5.46 0.364-5.46 0.364-7.75-1.19-2.06-2.99-3.47-5.44-2.88-9.12 0.206-0.557 0.412-1.11 0.625-1.69h3c0.33-1.32 0.66-2.64 1-4z" fill="#7C7B7C"/>
<path transform="translate(1353,150)" d="m0 0c0.33 0.66 0.66 1.32 1 2-0.33 0.66-0.66 1.32-1 2 0.99-0.33 1.98-0.66 3-1v2c0.66 0.33 1.32 0.66 2 1-0.33 0.66-0.66 1.32-1 2 2.47 0.99 2.47 0.99 5 2-0.33 2.64-0.66 5.28-1 8 0.99 0.66 1.98 1.32 3 2 0.333 2 0.667 4 1 6 0.99 0.66 1.98 1.32 3 2 2.3 3.28 3.43 6.04 4 10-1.48 0.495-1.48 0.495-3 1-2.49-2.49-2.94-4.68-4-8-1.09-2.73-1.73-3.8-4.12-5.56-0.619-0.474-1.24-0.949-1.88-1.44v-3c-1.98-0.66-3.96-1.32-6-2-0.205-1.05-0.41-2.1-0.621-3.18-0.272-1.38-0.544-2.76-0.816-4.14-0.135-0.69-0.269-1.38-0.408-2.09-0.582-2.94-1.21-5.75-2.15-8.6 1.32-0.33 2.64-0.66 4-1z" fill="#7C7B7E"/>
<path transform="translate(894,235)" d="m0 0v2h3c1.26 2.52 1.36 4.64 1.62 7.44 0.0954 0.968 0.191 1.94 0.289 2.93 0.0859 2.63 0.0859 2.63-0.914 5.63l-6-3c-0.731-2.31-1.4-4.65-2-7-1.11-0.144-2.23-0.289-3.38-0.438-3.62-0.562-3.62-0.562-5.62-1.56-2.57-0.0304-5.12 0.0669-7.69 0.16-2.31-0.16-2.31-0.16-4.31-2.16 0.583-0.0258 1.17-0.0516 1.77-0.0781 6.34-0.439 11.7-1.93 17.7-4.18 2.57-0.742 2.57-0.742 5.57 0.258z" fill="#7C7B7E"/>
<path transform="translate(1345,149)" d="m0 0h8v2c-0.66 0.66-1.32 1.32-2 2 0.205 2.49 0.205 2.49 0.875 5.25 0.821 4 1.35 7.64 1.12 11.8-0.289-0.639-0.578-1.28-0.875-1.94-0.953-2.21-0.953-2.21-3.12-3.06 0.33-0.66 0.66-1.32 1-2-0.99 0.33-1.98 0.66-3 1-0.99-0.99-1.98-1.98-3-3-0.33 0.66-0.66 1.32-1 2-2.12 0.438-2.12 0.438-5 0-2.33-2.08-4.28-4.39-6-7v-2c0.969-0.289 1.94-0.577 2.94-0.875 3.17-0.767 3.17-0.767 4.06-3.12 3.46 1.49 3.46 1.49 7 3-0.99 0.33-1.98 0.66-3 1 1.98 0.66 3.96 1.32 6 2-1.07-2.92-1.78-4.78-4-7z" fill="#787779"/>
<path transform="translate(1459,322)" d="m0 0v3c0.66 0.33 1.32 0.66 2 1-2.07 2.8-3.14 3.03-6.69 3.69-1.09 0.103-2.19 0.206-3.31 0.312v-1c-3.63-0.33-7.26-0.66-11-1 0.144 1.28 0.289 2.56 0.438 3.88 0.0812 0.719 0.162 1.44 0.246 2.18 0.229 2.02 0.229 2.02 1.32 3.95-1.98 0.66-3.96 1.32-6 2-0.366-1.73-0.717-3.46-1.06-5.19-0.296-1.44-0.296-1.44-0.598-2.92-0.344-2.93-0.0815-5.06 0.66-7.89 1.26-0.0606 2.53-0.121 3.83-0.184 1.66-0.0844 3.32-0.169 4.98-0.254 0.833-0.0393 1.67-0.0786 2.53-0.119 0.802-0.0419 1.6-0.0838 2.43-0.127 1.11-0.055 1.11-0.055 2.24-0.111 2.85-0.293 5.07-1.21 7.99-1.21z" fill="#828284"/>
<path transform="translate(1027,257)" d="m0 0c2.1 0.0871 4.21 0.195 6.31 0.312 1.76 0.087 1.76 0.087 3.55 0.176 3.35 0.547 4.09 0.957 6.14 3.51 0.99 0.66 1.98 1.32 3 2-0.99 0.33-1.98 0.66-3 1-0.679 2-1.35 4-2 6-0.99 0.66-1.98 1.32-3 2-1.32-1.32-2.64-2.64-4-4 0.33-0.66 0.66-1.32 1-2-2.64-0.66-5.28-1.32-8-2 0.33 0.99 0.66 1.98 1 3h-3c-0.66-0.99-1.32-1.98-2-3h-2c0.33-0.99 0.66-1.98 1-3 1.65-0.33 3.3-0.66 5-1v-3z" fill="#7B7A7E"/>
<path transform="translate(1423,240)" d="m0 0c1.67 1.67 3.33 3.33 5 5 1.05 0.99 1.05 0.99 2.12 2 2.04 2.18 3.39 4.41 4.88 7 0.536 0.639 1.07 1.28 1.62 1.94 1.81 2.71 2.17 4.83 2.38 8.06-0.938 2.38-0.938 2.38-2 4v-3c-0.784-0.0619-1.57-0.124-2.38-0.188-0.866-0.268-1.73-0.536-2.62-0.812-1.12-2.5-1.12-2.5-2-5-0.99-0.33-1.98-0.66-3-1-0.333-1.33-0.667-2.67-1-4-0.701-0.722-1.4-1.44-2.12-2.19-2.46-3.68-1.92-5.79-1.23-10 0.119-0.592 0.237-1.18 0.359-1.79z" fill="#7B7A7D"/>
<path transform="translate(858,144)" d="m0 0c1.6-0.0271 3.21-0.0464 4.81-0.0625 0.893-0.0116 1.79-0.0232 2.71-0.0352 2.48 0.0977 2.48 0.0977 5.48 1.1 0.33 2.64 0.66 5.28 1 8h-18v-6h3c0.33-0.99 0.66-1.98 1-3z" fill="#838385"/>
<path transform="translate(799,249)" d="m0 0h2c0.99 1.98 1.98 3.96 3 6 0.99-0.66 1.98-1.32 3-2v8c-0.99 0.495-0.99 0.495-2 1v-2h-2c0.66 2.64 1.32 5.28 2 8h-2c-0.933 4.1-1.29 8.12-1.56 12.3-0.0838 1.25-0.168 2.51-0.254 3.8-0.0606 0.953-0.121 1.91-0.184 2.89h-1c-1.02-12.7-1.11-25.3-1-38z" fill="#7C7B7C"/>
<path transform="translate(825,319)" d="m0 0c9.57 0.33 19.1 0.66 29 1 0.33 1.65 0.66 3.3 1 5-4.09-0.0688-8.19-0.157-12.3-0.262-1.39-0.0333-2.79-0.0613-4.18-0.084-2-0.0335-4-0.0874-6-0.142-1.2-0.0262-2.41-0.0524-3.65-0.0793-0.953-0.143-1.91-0.285-2.89-0.432-0.66-0.99-1.32-1.98-2-3 0.33-0.66 0.66-1.32 1-2z" fill="#000102"/>
<path transform="translate(119,78)" d="m0 0c7.92 2.46 15.4 5.67 23 9-1.77 2.21-2.8 2.95-5.59 3.65-0.959 0.0941-1.92 0.188-2.91 0.285-0.959 0.112-1.92 0.224-2.91 0.34-2.59-0.277-2.59-0.277-4.44-2.15-1.16-2.13-1.16-2.13-1.16-4.13-0.804-0.227-1.61-0.454-2.44-0.688-0.846-0.433-1.69-0.866-2.56-1.31-0.812-2.62-0.812-2.62-1-5z" fill="#E20082"/>
<path transform="translate(356,203)" d="m0 0h2c0.495 1.49 0.495 1.49 1 3-6.23 4.5-12.8 7.99-19.7 11.3-3.3 1.7-6.27 3.62-9.33 5.71-3.74 2.29-7.53 4.48-11.3 6.69-1.07 0.623-2.14 1.25-3.24 1.89-1.21 0.706-1.21 0.706-2.45 1.43v-3c1.35-1.18 1.35-1.18 3.27-2.31 0.715-0.431 1.43-0.861 2.17-1.3 0.784-0.456 1.57-0.913 2.38-1.38 0.801-0.477 1.6-0.954 2.43-1.45 2.58-1.53 5.17-3.04 7.76-4.55 1.3-0.762 1.3-0.762 2.62-1.54 15.8-9.26 15.8-9.26 22.4-12.5v-2z" fill="#000101"/>
<path transform="translate(809 180)" d="m0 0c1.79 0.0174 1.79 0.0174 3.62 0.0352 1.8 0.0135 1.8 0.0135 3.63 0.0273 0.927 0.0116 1.85 0.0232 2.81 0.0352 2.03 3.73 3 5.67 3 10h-2c-0.33-1.32-0.66-2.64-1-4-1.05 0.217-1.05 0.217-2.12 0.438-2.01 0.394-4.04 0.745-6.06 1.06-2.75 0.352-2.75 0.352-4.81 1.5-0.99-0.66-1.98-1.32-3-2 2.23-6.97 2.23-6.97 5.94-7.1z" fill="#7B7A7E"/>
<path transform="translate(903,139)" d="m0 0c5.66 1.45 10.5 4.32 15 8v2c0.619 0.0825 1.24 0.165 1.88 0.25 2.12 0.75 2.12 0.75 3.19 2.62 0.464 1.05 0.464 1.05 0.938 2.12 1.54 1.71 1.54 1.71 3 3-1.65 0.33-3.3 0.66-5 1-0.33-0.99-0.66-1.98-1-3-2.44-1.5-4.91-2.31-7.62-3.25-3.38-1.75-3.38-1.75-4.81-4.81-0.562-2.94-0.562-2.94-0.562-4.94-0.639-0.124-1.28-0.248-1.94-0.375-0.681-0.206-1.36-0.412-2.06-0.625-0.33-0.66-0.66-1.32-1-2z" fill="#535454"/>
<path transform="translate(358,168)" d="m0 0c6.79 0.423 13.5 1.16 20.2 2.23 0.71 0.112 1.42 0.225 2.15 0.341 2.94 0.469 5.88 0.944 8.82 1.43 2.18 0.356 4.35 0.701 6.53 1.04 1.28 0.208 2.56 0.417 3.88 0.631 4.69 0.453 7.42-0.169 11.6-2.3 1.39-0.681 1.39-0.681 2.81-1.38 0.66 0.33 1.32 0.66 2 1-2.61 2.82-4.44 4.72-8.29 5.4-8.21 0.111-16.6-1.05-24.7-2.4-0.33-0.33-0.66-0.66-1-1-1.52-0.273-3.05-0.491-4.59-0.684-1.4-0.185-1.4-0.185-2.82-0.373-1.97-0.253-3.94-0.503-5.91-0.75-0.933-0.124-1.87-0.249-2.83-0.377-1.29-0.163-1.29-0.163-2.6-0.33-2.25-0.487-2.25-0.487-5.25-2.49z" fill="#000001"/>
<path transform="translate(1380,135)" d="m0 0v18h-15c1.32-0.66 2.64-1.32 4-2 1.3-3.55 1.3-3.55 2-7 0.33 0.66 0.66 1.32 1 2h6c0.33-1.65 0.66-3.3 1-5-0.99-0.33-1.98-0.66-3-1 0.33-0.66 0.66-1.32 1-2-0.99-0.33-1.98-0.66-3-1v-1c4.88-1 4.88-1 6-1z" fill="#7C7B7E"/>
<path transform="translate(931,314)" d="m0 0c0.449 0.808 0.897 1.62 1.36 2.45 3.93 3.8 7.61 3.33 12.9 3.36 0.936 0.0251 1.87 0.0503 2.84 0.0762 2.31 0.0588 4.61 0.0951 6.91 0.111 0.33 1.32 0.66 2.64 1 4-3.29 0.029-6.58 0.0468-9.88 0.0625-0.937 0.00838-1.87 0.0168-2.84 0.0254-1.34 0.00483-1.34 0.00483-2.71 0.00977-1.24 0.00786-1.24 0.00786-2.51 0.0159-2.06-0.114-2.06-0.114-4.06-1.11v-2c-0.99-0.33-1.98-0.66-3-1-0.75-1.94-0.75-1.94-1-4 0.33-0.66 0.66-1.32 1-2z" fill="#000101"/>
<path transform="translate(775,320)" d="m0 0h24v4h-25c0.33-1.32 0.66-2.64 1-4z" fill="#000101"/>
<path transform="translate(774,324)" d="m0 0c2.97 0.495 2.97 0.495 6 1-1.49 2.48-1.49 2.48-3 5h3v3l2-1c0.33 2.64 0.66 5.28 1 8h-8c-1.14-3.42-1.1-6.09-1.06-9.69 0.00902-1.18 0.018-2.36 0.0273-3.57 0.0116-0.904 0.0232-1.81 0.0352-2.74z" fill="#7D7D7E"/>
<path transform="translate(1080,264)" d="m0 0h12c-0.99 0.495-0.99 0.495-2 1v2c2.31 0.33 4.62 0.66 7 1v2c-1.05 0.0909-1.05 0.0909-2.12 0.184-0.91 0.0838-1.82 0.168-2.76 0.254-0.905 0.0812-1.81 0.162-2.74 0.246-2.39 0.186-2.39 0.186-4.38 1.32-2 0.04-4 0.0435-6 0-0.625-1.75-0.625-1.75-1-4 0.66-1.32 1.32-2.64 2-4z" fill="#787779"/>
<path transform="translate(829,245)" d="m0 0c0.33 1.32 0.66 2.64 1 4h6c0.33 0.99 0.66 1.98 1 3 1.5 1.67 1.5 1.67 3 3-0.987 0.0374-1.97 0.0748-2.99 0.113-1.92 0.0986-1.92 0.0986-3.88 0.199-1.28 0.058-2.55 0.116-3.87 0.176-1.08 0.169-2.15 0.338-3.26 0.512-0.66 0.99-1.32 1.98-2 3-1-1-1-1-1.1-2.85 0.0326-2.05 0.0651-4.1 0.0977-6.15 0.804-0.268 1.61-0.536 2.44-0.812 0.846-0.392 1.69-0.784 2.56-1.19 0.33-0.99 0.66-1.98 1-3z" fill="#7C7C7C"/>
<path transform="translate(1e3 284)" d="m0 0c3 0 3 0 5 1 0.379 2.43 0.379 2.43 0.562 5.44 0.169 3.93 0.169 3.93 1.44 7.56h-3v2h3v3h-4v-3h-2c-0.124-1.13-0.247-2.27-0.375-3.44-0.206-1.18-0.413-2.35-0.625-3.56-0.66-0.33-1.32-0.66-2-1 0.875-6.88 0.875-6.88 2-8z" fill="#7C7B7E"/>
<path transform="translate(1378,184)" d="m0 0c5.34 1.27 7.34 3.12 10.4 7.62 1.03 1.5 1.03 1.5 2.09 3.04 0.508 0.771 1.02 1.54 1.54 2.34-0.33 0.66-0.66 1.32-1 2-0.99-1.32-1.98-2.64-3-4-0.598 0.33-1.2 0.66-1.81 1-2.19 1-2.19 1-5.19 1v-3c-0.99-0.33-1.98-0.66-3-1-0.879-6.15-0.879-6.15-1-8 0.33-0.33 0.66-0.66 1-1zm6 6c0.66 0.66 1.32 1.32 2 2v-2h-2z" fill="#5B5B5C"/>
<path transform="translate(1388,246)" d="m0 0h3c0.33 2.31 0.66 4.62 1 7 2.31 0.66 4.62 1.32 7 2v3l4 1c-1.32 1.65-2.64 3.3-4 5v-3c-0.552-0.255-1.1-0.51-1.67-0.773-2.69-1.42-5.1-3.09-7.58-4.85-0.892-0.632-1.78-1.26-2.7-1.91-1.01-0.723-1.01-0.723-2.05-1.46 1.88-4.88 1.88-4.88 3-6z" fill="#848486"/>
<path transform="translate(1430,253)" d="m0 0c2.96 0.32 4.58 0.59 6.75 2.69 1.54 2.85 2.05 5.08 2.25 8.31-0.938 2.38-0.938 2.38-2 4v-3c-1.18-0.0928-1.18-0.0928-2.38-0.188-0.866-0.268-1.73-0.536-2.62-0.812-1.12-2.5-1.12-2.5-2-5-0.99-0.33-1.98-0.66-3-1 0.33-0.99 0.66-1.98 1-3h2v-2z" fill="#7C7B7E"/>
<path transform="translate(1361,318)" d="m0 0c0.99 0.33 1.98 0.66 3 1 1.33 0.144 2.67 0.246 4.01 0.316 1.14 0.0628 1.14 0.0628 2.29 0.127 1.18 0.059 1.18 0.059 2.38 0.119 1.2 0.0648 1.2 0.0648 2.42 0.131 1.97 0.106 3.93 0.207 5.9 0.307v4c-14.8 0.369-14.8 0.369-21-2 0.33-1.32 0.66-2.64 1-4z" fill="#000102"/>
<path transform="translate(1013,309)" d="m0 0h7c1 4.75 1 4.75 1 7-0.804 0.124-1.61 0.248-2.44 0.375-1.27 0.309-1.27 0.309-2.56 0.625-0.33 0.66-0.66 1.32-1 2h-3c-0.66-0.99-1.32-1.98-2-3 1.38-3.69 1.38-3.69 3-7z" fill="#787779"/>
<path transform="translate(1436,320)" d="m0 0h20v3c-2.71 0.902-4.24 1.12-7.01 1.1-1.14-0.00483-1.14-0.00483-2.29-0.00977-0.786-0.00838-1.57-0.0168-2.38-0.0254-0.797-0.00451-1.59-0.00902-2.42-0.0137-1.97-0.0118-3.93-0.0297-5.9-0.0488v-4z" fill="#000101"/>
<path transform="translate(1072,199)" d="m0 0c-0.33 5.28-0.66 10.6-1 16-4-2-4-2-6-5 0.375-1.81 0.375-1.81 1-4 0.0385-2 0.0454-4 0-6-0.66-0.33-1.32-0.66-2-1 3-1 3-1 8 0z" fill="#848486"/>
<path transform="translate(870,137)" d="m0 0c1.65 0.33 3.3 0.66 5 1-1 2-1 2-3 3 0.206 1.07 0.413 2.15 0.625 3.25 0.363 3.63 0.359 4.83-1.62 7.75v-7h-11v-4h3c-0.33-0.66-0.66-1.32-1-2h7c0.33-0.66 0.66-1.32 1-2z" fill="#7C7C7D"/>
<path transform="translate(901,258)" d="m0 0c3.39 3.06 5.32 6.13 7.38 10.2 0.3 0.587 0.601 1.17 0.91 1.78 0.951 1.86 1.89 3.73 2.83 5.59 0.949 1.87 1.9 3.74 2.85 5.6 0.862 1.69 1.72 3.38 2.57 5.08 1.44 2.86 1.44 2.86 3.45 5.76-0.33 0.99-0.66 1.98-1 3-0.66-0.66-1.32-1.32-2-2v-3l-2-1c-3-5.42-3-5.42-3-8l-2-1c0.33-0.66 0.66-1.32 1-2l-2-1c-1.08-1.92-2.09-3.89-3.06-5.88-0.527-1.07-1.05-2.14-1.6-3.24-1.34-2.88-1.34-2.88-2.34-5.88-0.99-0.33-1.98-0.66-3-1 0.33-0.99 0.66-1.98 1-3z" fill="#000101"/>
<path transform="translate(1012,269)" d="m0 0v4c0.66 0.66 1.32 1.32 2 2-3 1-3 1-7 1-0.33 2.31-0.66 4.62-1 7h-2v-13c2.93-0.976 4.96-1.08 8-1z" fill="#7C7B7E"/>
<path transform="translate(1127,251)" d="m0 0h1v21h-13c0.66-0.33 1.32-0.66 2-1v-2c1.67-0.464 1.67-0.464 3.38-0.938 3.42-0.886 3.42-0.886 5.62-2.06 0.312-2.55 0.513-5 0.625-7.56 0.058-1.07 0.058-1.07 0.117-2.15 0.0945-1.76 0.177-3.52 0.258-5.28z" fill="#848486"/>
<path transform="translate(792,333)" d="m0 0 3 3c-0.33 0.33-0.66 0.66-1 1 1.3-0.0206 2.6-0.0412 3.94-0.0625 13 0.0206 13 0.0206 16.1 3.06h-24v-5h2v-2z" fill="#787779"/>
<path transform="translate(1305,139)" d="m0 0c2.28 3.42 2.63 5.96 3.24 9.94 0.587 2.25 0.587 2.25 2.83 3.34 0.637 0.238 1.27 0.477 1.93 0.723h-8v-2h-2v-11c0.66-0.33 1.32-0.66 2-1z" fill="#7C7C7C"/>
<path transform="translate(1437,271)" d="m0 0c0.268 0.577 0.536 1.15 0.812 1.75 1.14 2.31 1.14 2.31 2.81 4.38 1.38 1.88 1.38 1.88 1.38 3.88-1.98 0.33-3.96 0.66-6 1-0.33-0.99-0.66-1.98-1-3-0.66-0.33-1.32-0.66-2-1 0.33-0.99 0.66-1.98 1-3v-3c0.99-0.33 1.98-0.66 3-1z" fill="#79797A"/>
<path transform="translate(891,234)" d="m0 0c0.99 0.33 1.98 0.66 3 1v2h3c1.28 2.57 1.33 4.77 1.56 7.62 0.0838 1 0.168 2.01 0.254 3.04 0.0606 0.771 0.121 1.54 0.184 2.34h-3c-0.103-0.681-0.206-1.36-0.312-2.06-1.15-4.91-2.66-9.68-6.69-12.9 0.66-0.33 1.32-0.66 2-1z" fill="#848486"/>
<path transform="translate(800,153)" d="m0 0h3v6h-2c0.66 1.65 1.32 3.3 2 5-0.33 0.33-0.66 0.66-1 1-0.156 1.34-0.25 2.69-0.316 4.04-0.0628 1.21-0.0628 1.21-0.127 2.45-0.0393 0.85-0.0786 1.7-0.119 2.58-0.0432 0.854-0.0864 1.71-0.131 2.59-0.106 2.12-0.207 4.23-0.307 6.35h-1c-0.0251-0.599-0.0501-1.2-0.0759-1.82-0.117-2.75-0.239-5.5-0.362-8.25-0.059-1.41-0.059-1.41-0.119-2.86-0.231-5.09-0.613-10.1-1.44-15.1h2v-2z" fill="#848486"/>
<path transform="translate(825,319)" d="m0 0v2h-2v2c-2.97 0.66-5.94 1.32-9 2-0.33-0.99-0.66-1.98-1-3 7.2-6.2 7.2-6.2 12-3z" fill="#7D7D7D"/>
<path transform="translate(918,149)" d="m0 0c1.88 0.25 1.88 0.25 4 1 1.06 1.88 1.06 1.88 2 4 1.54 1.71 1.54 1.71 3 3-1.65 0.33-3.3 0.66-5 1-0.33-0.99-0.66-1.98-1-3-1.32-0.699-2.65-1.37-4-2-0.33-0.66-0.66-1.32-1-2h2v-2z" fill="#605F63"/>
<path transform="translate(1036,320)" d="m0 0h6v2h2c0.124 0.619 0.247 1.24 0.375 1.88 0.497 2.32 0.497 2.32 2.62 4.12-2.61 0.383-4.38 0.374-6.67-1.01-1.64-1.3-1.64-1.3-4.33-3.99v-3z" fill="#7C7B7E"/>
<path transform="translate(1441,135)" d="m0 0c0.66 0.99 1.32 1.98 2 3h-2c0.33 5.02 0.33 5.02 3 9-3 1-3 1-5.19 0.125-2.85-3.34-2.13-6.91-1.81-11.1h3c0.33-0.33 0.66-0.66 1-1z" fill="#7C7C7C"/>
<path transform="translate(774,141)" d="m0 0h2c0.133 0.699 0.266 1.4 0.402 2.12 0.177 0.91 0.353 1.82 0.535 2.76 0.261 1.36 0.261 1.36 0.527 2.74 0.435 2.38 0.435 2.38 1.54 4.38-4.88-0.875-4.88-0.875-6-2-0.0979-1.5-0.13-3-0.125-4.5-0.00258-0.815-0.00516-1.63-0.00781-2.47 0.133-2.03 0.133-2.03 1.13-3.03z" fill="#7C7B7C"/>
<path transform="translate(402,259)" d="m0 0c2.19 0.312 2.19 0.312 4 1v2c-1.96 1-3.91 2-5.88 3-1.09 0.557-2.18 1.11-3.3 1.69-2.82 1.31-2.82 1.31-4.82 1.31 0.125-1.88 0.125-1.88 1-4 1.98-0.731 3.98-1.39 6-2 0.536-0.557 1.07-1.11 1.62-1.69 0.454-0.433 0.908-0.866 1.38-1.31z" fill="#F4028C"/>
<path transform="translate(905,280)" d="m0 0c1.33 2.67 0.671 4.17 0 7h-6v-3h-4v-2c3.3-0.66 6.6-1.32 10-2z" fill="#7C7B7E"/>
<path transform="translate(1019,288)" d="m0 0c2.1 2.36 2.97 3.55 3.19 6.75-0.0619 0.743-0.124 1.49-0.188 2.25-1.32-0.33-2.64-0.66-4-1-0.33 0.99-0.66 1.98-1 3-1.25-2.12-1.25-2.12-2-5 1.88-3.31 1.88-3.31 4-6z" fill="#7B7A7B"/>
<path transform="translate(822,260)" d="m0 0h2v20h-1c-1.8-6.98-2.12-12.9-1-20z" fill="#7C7C7C"/>
<path transform="translate(356,203)" d="m0 0h2c0.33 0.99 0.66 1.98 1 3-9.23 6.52-9.23 6.52-15 8 1.47-3.94 3.37-5.02 7.12-6.75 0.91-0.428 1.82-0.856 2.76-1.3 1.05-0.472 1.05-0.472 2.12-0.953v-2z" fill="#000210"/>
<path transform="translate(921,295)" d="m0 0c3.27 2.72 4.86 6.32 6.69 10.1 0.32 0.637 0.641 1.27 0.971 1.93 2.34 4.74 2.34 4.74 2.34 7.01h-2c-1.33-2.67-2.67-5.33-4-8-0.374-0.686-0.748-1.37-1.13-2.08-0.867-1.92-0.867-1.92-0.867-4.92-0.66-0.33-1.32-0.66-2-1v-3z" fill="#000101"/>
<path transform="translate(1324,148)" d="m0 0c2.44 0.375 2.44 0.375 5 1 0.33 0.66 0.66 1.32 1 2h-2v2h-14v-1c1.28-0.144 2.56-0.289 3.88-0.438 2.38-0.269 3.97-0.485 6.12-1.56v-2z" fill="#787779"/>
<path transform="translate(903,160)" d="m0 0h4c0.66 1.65 1.32 3.3 2 5-5.75 1.12-5.75 1.12-8 0 1-3 1-3 2-5z" fill="#787779"/>
<path transform="translate(886,154)" d="m0 0h6c0.33 0.66 0.66 1.32 1 2 2.02 0.652 2.02 0.652 4 1v3c-4.39-0.665-7.98-2.19-12-4 0.33-0.66 0.66-1.32 1-2z" fill="#7C7C7C"/>
<path transform="translate(1360,189)" d="m0 0h7v4h-2v3c-3-1-3-1-5-4v-3z" fill="#797879"/>
<path transform="translate(1380,135)" d="m0 0v15h-1v-9c-0.99-0.33-1.98-0.66-3-1 0.33-0.66 0.66-1.32 1-2-0.99-0.33-1.98-0.66-3-1v-1c4.88-1 4.88-1 6-1z" fill="#7C7C7C"/>
<path transform="translate(904,293)" d="m0 0c2.25 0.25 2.25 0.25 4 1v5c-0.99-0.33-1.98-0.66-3-1-0.33-0.66-0.66-1.32-1-2-0.66 1.32-1.32 2.64-2 4v-2l-2-1c1.75-2.06 1.75-2.06 4-4z" fill="#7C7B7F"/>
<path transform="translate(79,73)" d="m0 0h1c-0.468 4.06-0.88 7.47-3 11-0.66-0.33-1.32-0.66-2-1 0.476-4.19 1.1-6.86 4-10z" fill="#F5038C"/>
<path transform="translate(800,153)" d="m0 0h3v6c-1.98 0.99-1.98 0.99-4 2-0.33-1.98-0.66-3.96-1-6h2v-2z" fill="#838384"/>
<path transform="translate(853,145)" d="m0 0h4v2h-3c0.33 0.99 0.66 1.98 1 3-0.33 0.99-0.66 1.98-1 3h-4c1.88-5.75 1.88-5.75 3-8z" fill="#7C7B7C"/>
<path transform="translate(1248,275)" d="m0 0h6v1h-6v-1z" fill="#848486"/>
<path transform="translate(1512,331)" d="m0 0 1 4z" fill="#020305"/>
<path transform="translate(1455,154)" d="m0 0 2 1z" fill="#848486"/>
</svg>
